<?xml version="1.0" encoding="utf-8" standalone="no"?>
<!DOCTYPE svg PUBLIC "-//W3C//DTD SVG 1.1//EN"
  "http://www.w3.org/Graphics/SVG/1.1/DTD/svg11.dtd">
<svg xmlns:xlink="http://www.w3.org/1999/xlink" width="769.641254pt" height="480.634375pt" viewBox="0 0 769.641254 480.634375" xmlns="http://www.w3.org/2000/svg" version="1.1">
 <metadata>
  <rdf:RDF xmlns:dc="http://purl.org/dc/elements/1.1/" xmlns:cc="http://creativecommons.org/ns#" xmlns:rdf="http://www.w3.org/1999/02/22-rdf-syntax-ns#">
   <cc:Work>
    <dc:type rdf:resource="http://purl.org/dc/dcmitype/StillImage"/>
    <dc:date>2026-03-24T11:29:14.644217</dc:date>
    <dc:format>image/svg+xml</dc:format>
    <dc:creator>
     <cc:Agent>
      <dc:title>Matplotlib v3.10.7, https://matplotlib.org/</dc:title>
     </cc:Agent>
    </dc:creator>
   </cc:Work>
  </rdf:RDF>
 </metadata>
 <defs>
  <style type="text/css">*{stroke-linejoin: round; stroke-linecap: butt}</style>
 </defs>
 <g id="figure_1">
  <g id="patch_1">
   <path d="M 0 480.634375
L 769.641254 480.634375
L 769.641254 0
L 0 0
z
" style="fill: #f7f3ea"/>
  </g>
  <g id="axes_1">
   <g id="patch_2">
    <path d="M 111.328125 443.078125
L 718.670694 443.078125
L 718.670694 30.318125
L 111.328125 30.318125
z
" style="fill: #fffdf8"/>
   </g>
   <g id="patch_3">
    <path d="M 111.328125 424.316307
L 210.008285 424.316307
L 210.008285 405.316997
L 111.328125 405.316997
z
" clip-path="url(#p6a1f6710f4)" style="fill: #b7b0a3; stroke: #6f695e; stroke-width: 0.7; stroke-linejoin: miter"/>
   </g>
   <g id="patch_4">
    <path d="M 111.328125 400.56717
L 223.188764 400.56717
L 223.188764 381.56786
L 111.328125 381.56786
z
" clip-path="url(#p6a1f6710f4)" style="fill: #b7b0a3; stroke: #6f695e; stroke-width: 0.7; stroke-linejoin: miter"/>
   </g>
   <g id="patch_5">
    <path d="M 111.328125 376.818033
L 273.482694 376.818033
L 273.482694 357.818723
L 111.328125 357.818723
z
" clip-path="url(#p6a1f6710f4)" style="fill: #b7b0a3; stroke: #6f695e; stroke-width: 0.7; stroke-linejoin: miter"/>
   </g>
   <g id="patch_6">
    <path d="M 111.328125 353.068896
L 484.023493 353.068896
L 484.023493 334.069586
L 111.328125 334.069586
z
" clip-path="url(#p6a1f6710f4)" style="fill: #b7b0a3; stroke: #6f695e; stroke-width: 0.7; stroke-linejoin: miter"/>
   </g>
   <g id="patch_7">
    <path d="M 111.328125 329.319759
L 486.104622 329.319759
L 486.104622 310.32045
L 111.328125 310.32045
z
" clip-path="url(#p6a1f6710f4)" style="fill: #b7b0a3; stroke: #6f695e; stroke-width: 0.7; stroke-linejoin: miter"/>
   </g>
   <g id="patch_8">
    <path d="M 111.328125 305.570622
L 541.948227 305.570622
L 541.948227 286.571313
L 111.328125 286.571313
z
" clip-path="url(#p6a1f6710f4)" style="fill: #b7b0a3; stroke: #6f695e; stroke-width: 0.7; stroke-linejoin: miter"/>
   </g>
   <g id="patch_9">
    <path d="M 111.328125 281.821485
L 613.573722 281.821485
L 613.573722 262.822176
L 111.328125 262.822176
z
" clip-path="url(#p6a1f6710f4)" style="fill: #b7b0a3; stroke: #6f695e; stroke-width: 0.7; stroke-linejoin: miter"/>
   </g>
   <g id="patch_10">
    <path d="M 111.328125 258.072348
L 680.516678 258.072348
L 680.516678 239.073039
L 111.328125 239.073039
z
" clip-path="url(#p6a1f6710f4)" style="fill: #b7b0a3; stroke: #6f695e; stroke-width: 0.7; stroke-linejoin: miter"/>
   </g>
   <g id="patch_11">
    <path d="M 111.328125 234.323211
L 681.904096 234.323211
L 681.904096 215.323902
L 111.328125 215.323902
z
" clip-path="url(#p6a1f6710f4)" style="fill: #b7b0a3; stroke: #6f695e; stroke-width: 0.7; stroke-linejoin: miter"/>
   </g>
   <g id="patch_12">
    <path d="M 111.328125 210.574074
L 687.627199 210.574074
L 687.627199 191.574765
L 111.328125 191.574765
z
" clip-path="url(#p6a1f6710f4)" style="fill: #b7b0a3; stroke: #6f695e; stroke-width: 0.7; stroke-linejoin: miter"/>
   </g>
   <g id="patch_13">
    <path d="M 111.328125 186.824937
L 687.974053 186.824937
L 687.974053 167.825628
L 111.328125 167.825628
z
" clip-path="url(#p6a1f6710f4)" style="fill: #b7b0a3; stroke: #6f695e; stroke-width: 0.7; stroke-linejoin: miter"/>
   </g>
   <g id="patch_14">
    <path d="M 111.328125 163.0758
L 688.147481 163.0758
L 688.147481 144.076491
L 111.328125 144.076491
z
" clip-path="url(#p6a1f6710f4)" style="fill: #b7b0a3; stroke: #6f695e; stroke-width: 0.7; stroke-linejoin: miter"/>
   </g>
   <g id="patch_15">
    <path d="M 111.328125 139.326664
L 688.320908 139.326664
L 688.320908 120.327354
L 111.328125 120.327354
z
" clip-path="url(#p6a1f6710f4)" style="fill: #b7b0a3; stroke: #6f695e; stroke-width: 0.7; stroke-linejoin: miter"/>
   </g>
   <g id="patch_16">
    <path d="M 111.328125 115.577527
L 689.188045 115.577527
L 689.188045 96.578217
L 111.328125 96.578217
z
" clip-path="url(#p6a1f6710f4)" style="fill: #c84c09; stroke: #6f695e; stroke-width: 0.7; stroke-linejoin: miter"/>
   </g>
   <g id="patch_17">
    <path d="M 111.328125 91.82839
L 689.188045 91.82839
L 689.188045 72.82908
L 111.328125 72.82908
z
" clip-path="url(#p6a1f6710f4)" style="fill: #c84c09; stroke: #6f695e; stroke-width: 0.7; stroke-linejoin: miter"/>
   </g>
   <g id="patch_18">
    <path d="M 111.328125 68.079253
L 689.5349 68.079253
L 689.5349 49.079943
L 111.328125 49.079943
z
" clip-path="url(#p6a1f6710f4)" style="fill: #0b6e4f; stroke: #6f695e; stroke-width: 0.7; stroke-linejoin: miter"/>
   </g>
   <g id="matplotlib.axis_1">
    <g id="xtick_1">
     <g id="line2d_1">
      <path d="M 111.328125 443.078125
L 111.328125 30.318125
" clip-path="url(#p6a1f6710f4)" style="fill: none; stroke-dasharray: 2.96,1.28; stroke-dashoffset: 0; stroke: #6b6b6b; stroke-opacity: 0.25; stroke-width: 0.8"/>
     </g>
     <g id="line2d_2">
      <defs>
       <path id="m3ebebd306a" d="M 0 0
L 0 3.5
" style="stroke: #333333; stroke-width: 0.8"/>
      </defs>
      <g>
       <use xlink:href="#m3ebebd306a" x="111.328125" y="443.078125" style="fill: #333333; stroke: #333333; stroke-width: 0.8"/>
      </g>
     </g>
     <g id="text_1">
      <!-- 0 -->
      <g style="fill: #333333" transform="translate(108.146875 457.676562) scale(0.1 -0.1)">
       <defs>
        <path id="DejaVuSans-30" d="M 2034 4250
Q 1547 4250 1301 3770
Q 1056 3291 1056 2328
Q 1056 1369 1301 889
Q 1547 409 2034 409
Q 2525 409 2770 889
Q 3016 1369 3016 2328
Q 3016 3291 2770 3770
Q 2525 4250 2034 4250
z
M 2034 4750
Q 2819 4750 3233 4129
Q 3647 3509 3647 2328
Q 3647 1150 3233 529
Q 2819 -91 2034 -91
Q 1250 -91 836 529
Q 422 1150 422 2328
Q 422 3509 836 4129
Q 1250 4750 2034 4750
z
" transform="scale(0.015625)"/>
       </defs>
       <use xlink:href="#DejaVuSans-30"/>
      </g>
     </g>
    </g>
    <g id="xtick_2">
     <g id="line2d_3">
      <path d="M 229.258721 443.078125
L 229.258721 30.318125
" clip-path="url(#p6a1f6710f4)" style="fill: none; stroke-dasharray: 2.96,1.28; stroke-dashoffset: 0; stroke: #6b6b6b; stroke-opacity: 0.25; stroke-width: 0.8"/>
     </g>
     <g id="line2d_4">
      <g>
       <use xlink:href="#m3ebebd306a" x="229.258721" y="443.078125" style="fill: #333333; stroke: #333333; stroke-width: 0.8"/>
      </g>
     </g>
     <g id="text_2">
      <!-- 20 -->
      <g style="fill: #333333" transform="translate(222.896221 457.676562) scale(0.1 -0.1)">
       <defs>
        <path id="DejaVuSans-32" d="M 1228 531
L 3431 531
L 3431 0
L 469 0
L 469 531
Q 828 903 1448 1529
Q 2069 2156 2228 2338
Q 2531 2678 2651 2914
Q 2772 3150 2772 3378
Q 2772 3750 2511 3984
Q 2250 4219 1831 4219
Q 1534 4219 1204 4116
Q 875 4013 500 3803
L 500 4441
Q 881 4594 1212 4672
Q 1544 4750 1819 4750
Q 2544 4750 2975 4387
Q 3406 4025 3406 3419
Q 3406 3131 3298 2873
Q 3191 2616 2906 2266
Q 2828 2175 2409 1742
Q 1991 1309 1228 531
z
" transform="scale(0.015625)"/>
       </defs>
       <use xlink:href="#DejaVuSans-32"/>
       <use xlink:href="#DejaVuSans-30" transform="translate(63.623047 0)"/>
      </g>
     </g>
    </g>
    <g id="xtick_3">
     <g id="line2d_5">
      <path d="M 347.189317 443.078125
L 347.189317 30.318125
" clip-path="url(#p6a1f6710f4)" style="fill: none; stroke-dasharray: 2.96,1.28; stroke-dashoffset: 0; stroke: #6b6b6b; stroke-opacity: 0.25; stroke-width: 0.8"/>
     </g>
     <g id="line2d_6">
      <g>
       <use xlink:href="#m3ebebd306a" x="347.189317" y="443.078125" style="fill: #333333; stroke: #333333; stroke-width: 0.8"/>
      </g>
     </g>
     <g id="text_3">
      <!-- 40 -->
      <g style="fill: #333333" transform="translate(340.826817 457.676562) scale(0.1 -0.1)">
       <defs>
        <path id="DejaVuSans-34" d="M 2419 4116
L 825 1625
L 2419 1625
L 2419 4116
z
M 2253 4666
L 3047 4666
L 3047 1625
L 3713 1625
L 3713 1100
L 3047 1100
L 3047 0
L 2419 0
L 2419 1100
L 313 1100
L 313 1709
L 2253 4666
z
" transform="scale(0.015625)"/>
       </defs>
       <use xlink:href="#DejaVuSans-34"/>
       <use xlink:href="#DejaVuSans-30" transform="translate(63.623047 0)"/>
      </g>
     </g>
    </g>
    <g id="xtick_4">
     <g id="line2d_7">
      <path d="M 465.119913 443.078125
L 465.119913 30.318125
" clip-path="url(#p6a1f6710f4)" style="fill: none; stroke-dasharray: 2.96,1.28; stroke-dashoffset: 0; stroke: #6b6b6b; stroke-opacity: 0.25; stroke-width: 0.8"/>
     </g>
     <g id="line2d_8">
      <g>
       <use xlink:href="#m3ebebd306a" x="465.119913" y="443.078125" style="fill: #333333; stroke: #333333; stroke-width: 0.8"/>
      </g>
     </g>
     <g id="text_4">
      <!-- 60 -->
      <g style="fill: #333333" transform="translate(458.757413 457.676562) scale(0.1 -0.1)">
       <defs>
        <path id="DejaVuSans-36" d="M 2113 2584
Q 1688 2584 1439 2293
Q 1191 2003 1191 1497
Q 1191 994 1439 701
Q 1688 409 2113 409
Q 2538 409 2786 701
Q 3034 994 3034 1497
Q 3034 2003 2786 2293
Q 2538 2584 2113 2584
z
M 3366 4563
L 3366 3988
Q 3128 4100 2886 4159
Q 2644 4219 2406 4219
Q 1781 4219 1451 3797
Q 1122 3375 1075 2522
Q 1259 2794 1537 2939
Q 1816 3084 2150 3084
Q 2853 3084 3261 2657
Q 3669 2231 3669 1497
Q 3669 778 3244 343
Q 2819 -91 2113 -91
Q 1303 -91 875 529
Q 447 1150 447 2328
Q 447 3434 972 4092
Q 1497 4750 2381 4750
Q 2619 4750 2861 4703
Q 3103 4656 3366 4563
z
" transform="scale(0.015625)"/>
       </defs>
       <use xlink:href="#DejaVuSans-36"/>
       <use xlink:href="#DejaVuSans-30" transform="translate(63.623047 0)"/>
      </g>
     </g>
    </g>
    <g id="xtick_5">
     <g id="line2d_9">
      <path d="M 583.050509 443.078125
L 583.050509 30.318125
" clip-path="url(#p6a1f6710f4)" style="fill: none; stroke-dasharray: 2.96,1.28; stroke-dashoffset: 0; stroke: #6b6b6b; stroke-opacity: 0.25; stroke-width: 0.8"/>
     </g>
     <g id="line2d_10">
      <g>
       <use xlink:href="#m3ebebd306a" x="583.050509" y="443.078125" style="fill: #333333; stroke: #333333; stroke-width: 0.8"/>
      </g>
     </g>
     <g id="text_5">
      <!-- 80 -->
      <g style="fill: #333333" transform="translate(576.688009 457.676562) scale(0.1 -0.1)">
       <defs>
        <path id="DejaVuSans-38" d="M 2034 2216
Q 1584 2216 1326 1975
Q 1069 1734 1069 1313
Q 1069 891 1326 650
Q 1584 409 2034 409
Q 2484 409 2743 651
Q 3003 894 3003 1313
Q 3003 1734 2745 1975
Q 2488 2216 2034 2216
z
M 1403 2484
Q 997 2584 770 2862
Q 544 3141 544 3541
Q 544 4100 942 4425
Q 1341 4750 2034 4750
Q 2731 4750 3128 4425
Q 3525 4100 3525 3541
Q 3525 3141 3298 2862
Q 3072 2584 2669 2484
Q 3125 2378 3379 2068
Q 3634 1759 3634 1313
Q 3634 634 3220 271
Q 2806 -91 2034 -91
Q 1263 -91 848 271
Q 434 634 434 1313
Q 434 1759 690 2068
Q 947 2378 1403 2484
z
M 1172 3481
Q 1172 3119 1398 2916
Q 1625 2713 2034 2713
Q 2441 2713 2670 2916
Q 2900 3119 2900 3481
Q 2900 3844 2670 4047
Q 2441 4250 2034 4250
Q 1625 4250 1398 4047
Q 1172 3844 1172 3481
z
" transform="scale(0.015625)"/>
       </defs>
       <use xlink:href="#DejaVuSans-38"/>
       <use xlink:href="#DejaVuSans-30" transform="translate(63.623047 0)"/>
      </g>
     </g>
    </g>
    <g id="xtick_6">
     <g id="line2d_11">
      <path d="M 700.981104 443.078125
L 700.981104 30.318125
" clip-path="url(#p6a1f6710f4)" style="fill: none; stroke-dasharray: 2.96,1.28; stroke-dashoffset: 0; stroke: #6b6b6b; stroke-opacity: 0.25; stroke-width: 0.8"/>
     </g>
     <g id="line2d_12">
      <g>
       <use xlink:href="#m3ebebd306a" x="700.981104" y="443.078125" style="fill: #333333; stroke: #333333; stroke-width: 0.8"/>
      </g>
     </g>
     <g id="text_6">
      <!-- 100 -->
      <g style="fill: #333333" transform="translate(691.437354 457.676562) scale(0.1 -0.1)">
       <defs>
        <path id="DejaVuSans-31" d="M 794 531
L 1825 531
L 1825 4091
L 703 3866
L 703 4441
L 1819 4666
L 2450 4666
L 2450 531
L 3481 531
L 3481 0
L 794 0
L 794 531
z
" transform="scale(0.015625)"/>
       </defs>
       <use xlink:href="#DejaVuSans-31"/>
       <use xlink:href="#DejaVuSans-30" transform="translate(63.623047 0)"/>
       <use xlink:href="#DejaVuSans-30" transform="translate(127.246094 0)"/>
      </g>
     </g>
    </g>
    <g id="text_7">
     <!-- Accuracy cellule (%) -->
     <g style="fill: #1f1f1f" transform="translate(364.102534 471.354687) scale(0.1 -0.1)">
      <defs>
       <path id="DejaVuSans-41" d="M 2188 4044
L 1331 1722
L 3047 1722
L 2188 4044
z
M 1831 4666
L 2547 4666
L 4325 0
L 3669 0
L 3244 1197
L 1141 1197
L 716 0
L 50 0
L 1831 4666
z
" transform="scale(0.015625)"/>
       <path id="DejaVuSans-63" d="M 3122 3366
L 3122 2828
Q 2878 2963 2633 3030
Q 2388 3097 2138 3097
Q 1578 3097 1268 2742
Q 959 2388 959 1747
Q 959 1106 1268 751
Q 1578 397 2138 397
Q 2388 397 2633 464
Q 2878 531 3122 666
L 3122 134
Q 2881 22 2623 -34
Q 2366 -91 2075 -91
Q 1284 -91 818 406
Q 353 903 353 1747
Q 353 2603 823 3093
Q 1294 3584 2113 3584
Q 2378 3584 2631 3529
Q 2884 3475 3122 3366
z
" transform="scale(0.015625)"/>
       <path id="DejaVuSans-75" d="M 544 1381
L 544 3500
L 1119 3500
L 1119 1403
Q 1119 906 1312 657
Q 1506 409 1894 409
Q 2359 409 2629 706
Q 2900 1003 2900 1516
L 2900 3500
L 3475 3500
L 3475 0
L 2900 0
L 2900 538
Q 2691 219 2414 64
Q 2138 -91 1772 -91
Q 1169 -91 856 284
Q 544 659 544 1381
z
M 1991 3584
L 1991 3584
z
" transform="scale(0.015625)"/>
       <path id="DejaVuSans-72" d="M 2631 2963
Q 2534 3019 2420 3045
Q 2306 3072 2169 3072
Q 1681 3072 1420 2755
Q 1159 2438 1159 1844
L 1159 0
L 581 0
L 581 3500
L 1159 3500
L 1159 2956
Q 1341 3275 1631 3429
Q 1922 3584 2338 3584
Q 2397 3584 2469 3576
Q 2541 3569 2628 3553
L 2631 2963
z
" transform="scale(0.015625)"/>
       <path id="DejaVuSans-61" d="M 2194 1759
Q 1497 1759 1228 1600
Q 959 1441 959 1056
Q 959 750 1161 570
Q 1363 391 1709 391
Q 2188 391 2477 730
Q 2766 1069 2766 1631
L 2766 1759
L 2194 1759
z
M 3341 1997
L 3341 0
L 2766 0
L 2766 531
Q 2569 213 2275 61
Q 1981 -91 1556 -91
Q 1019 -91 701 211
Q 384 513 384 1019
Q 384 1609 779 1909
Q 1175 2209 1959 2209
L 2766 2209
L 2766 2266
Q 2766 2663 2505 2880
Q 2244 3097 1772 3097
Q 1472 3097 1187 3025
Q 903 2953 641 2809
L 641 3341
Q 956 3463 1253 3523
Q 1550 3584 1831 3584
Q 2591 3584 2966 3190
Q 3341 2797 3341 1997
z
" transform="scale(0.015625)"/>
       <path id="DejaVuSans-79" d="M 2059 -325
Q 1816 -950 1584 -1140
Q 1353 -1331 966 -1331
L 506 -1331
L 506 -850
L 844 -850
Q 1081 -850 1212 -737
Q 1344 -625 1503 -206
L 1606 56
L 191 3500
L 800 3500
L 1894 763
L 2988 3500
L 3597 3500
L 2059 -325
z
" transform="scale(0.015625)"/>
       <path id="DejaVuSans-20" transform="scale(0.015625)"/>
       <path id="DejaVuSans-65" d="M 3597 1894
L 3597 1613
L 953 1613
Q 991 1019 1311 708
Q 1631 397 2203 397
Q 2534 397 2845 478
Q 3156 559 3463 722
L 3463 178
Q 3153 47 2828 -22
Q 2503 -91 2169 -91
Q 1331 -91 842 396
Q 353 884 353 1716
Q 353 2575 817 3079
Q 1281 3584 2069 3584
Q 2775 3584 3186 3129
Q 3597 2675 3597 1894
z
M 3022 2063
Q 3016 2534 2758 2815
Q 2500 3097 2075 3097
Q 1594 3097 1305 2825
Q 1016 2553 972 2059
L 3022 2063
z
" transform="scale(0.015625)"/>
       <path id="DejaVuSans-6c" d="M 603 4863
L 1178 4863
L 1178 0
L 603 0
L 603 4863
z
" transform="scale(0.015625)"/>
       <path id="DejaVuSans-28" d="M 1984 4856
Q 1566 4138 1362 3434
Q 1159 2731 1159 2009
Q 1159 1288 1364 580
Q 1569 -128 1984 -844
L 1484 -844
Q 1016 -109 783 600
Q 550 1309 550 2009
Q 550 2706 781 3412
Q 1013 4119 1484 4856
L 1984 4856
z
" transform="scale(0.015625)"/>
       <path id="DejaVuSans-25" d="M 4653 2053
Q 4381 2053 4226 1822
Q 4072 1591 4072 1178
Q 4072 772 4226 539
Q 4381 306 4653 306
Q 4919 306 5073 539
Q 5228 772 5228 1178
Q 5228 1588 5073 1820
Q 4919 2053 4653 2053
z
M 4653 2450
Q 5147 2450 5437 2106
Q 5728 1763 5728 1178
Q 5728 594 5436 251
Q 5144 -91 4653 -91
Q 4153 -91 3862 251
Q 3572 594 3572 1178
Q 3572 1766 3864 2108
Q 4156 2450 4653 2450
z
M 1428 4353
Q 1159 4353 1004 4120
Q 850 3888 850 3481
Q 850 3069 1003 2837
Q 1156 2606 1428 2606
Q 1700 2606 1854 2837
Q 2009 3069 2009 3481
Q 2009 3884 1853 4118
Q 1697 4353 1428 4353
z
M 4250 4750
L 4750 4750
L 1831 -91
L 1331 -91
L 4250 4750
z
M 1428 4750
Q 1922 4750 2215 4408
Q 2509 4066 2509 3481
Q 2509 2891 2217 2550
Q 1925 2209 1428 2209
Q 931 2209 642 2551
Q 353 2894 353 3481
Q 353 4063 643 4406
Q 934 4750 1428 4750
z
" transform="scale(0.015625)"/>
       <path id="DejaVuSans-29" d="M 513 4856
L 1013 4856
Q 1481 4119 1714 3412
Q 1947 2706 1947 2009
Q 1947 1309 1714 600
Q 1481 -109 1013 -844
L 513 -844
Q 928 -128 1133 580
Q 1338 1288 1338 2009
Q 1338 2731 1133 3434
Q 928 4138 513 4856
z
" transform="scale(0.015625)"/>
      </defs>
      <use xlink:href="#DejaVuSans-41"/>
      <use xlink:href="#DejaVuSans-63" transform="translate(66.658203 0)"/>
      <use xlink:href="#DejaVuSans-63" transform="translate(121.638672 0)"/>
      <use xlink:href="#DejaVuSans-75" transform="translate(176.619141 0)"/>
      <use xlink:href="#DejaVuSans-72" transform="translate(239.998047 0)"/>
      <use xlink:href="#DejaVuSans-61" transform="translate(281.111328 0)"/>
      <use xlink:href="#DejaVuSans-63" transform="translate(342.390625 0)"/>
      <use xlink:href="#DejaVuSans-79" transform="translate(397.371094 0)"/>
      <use xlink:href="#DejaVuSans-20" transform="translate(456.550781 0)"/>
      <use xlink:href="#DejaVuSans-63" transform="translate(488.337891 0)"/>
      <use xlink:href="#DejaVuSans-65" transform="translate(543.318359 0)"/>
      <use xlink:href="#DejaVuSans-6c" transform="translate(604.841797 0)"/>
      <use xlink:href="#DejaVuSans-6c" transform="translate(632.625 0)"/>
      <use xlink:href="#DejaVuSans-75" transform="translate(660.408203 0)"/>
      <use xlink:href="#DejaVuSans-6c" transform="translate(723.787109 0)"/>
      <use xlink:href="#DejaVuSans-65" transform="translate(751.570312 0)"/>
      <use xlink:href="#DejaVuSans-20" transform="translate(813.09375 0)"/>
      <use xlink:href="#DejaVuSans-28" transform="translate(844.880859 0)"/>
      <use xlink:href="#DejaVuSans-25" transform="translate(883.894531 0)"/>
      <use xlink:href="#DejaVuSans-29" transform="translate(978.914062 0)"/>
     </g>
    </g>
   </g>
   <g id="matplotlib.axis_2">
    <g id="ytick_1">
     <g id="line2d_13">
      <defs>
       <path id="me506bbd094" d="M 0 0
L -3.5 0
" style="stroke: #333333; stroke-width: 0.8"/>
      </defs>
      <g>
       <use xlink:href="#me506bbd094" x="111.328125" y="414.816652" style="fill: #333333; stroke: #333333; stroke-width: 0.8"/>
      </g>
     </g>
     <g id="text_8">
      <!-- Cal. LogReg -->
      <g style="fill: #333333" transform="translate(45.21875 418.615871) scale(0.1 -0.1)">
       <defs>
        <path id="DejaVuSans-43" d="M 4122 4306
L 4122 3641
Q 3803 3938 3442 4084
Q 3081 4231 2675 4231
Q 1875 4231 1450 3742
Q 1025 3253 1025 2328
Q 1025 1406 1450 917
Q 1875 428 2675 428
Q 3081 428 3442 575
Q 3803 722 4122 1019
L 4122 359
Q 3791 134 3420 21
Q 3050 -91 2638 -91
Q 1578 -91 968 557
Q 359 1206 359 2328
Q 359 3453 968 4101
Q 1578 4750 2638 4750
Q 3056 4750 3426 4639
Q 3797 4528 4122 4306
z
" transform="scale(0.015625)"/>
        <path id="DejaVuSans-2e" d="M 684 794
L 1344 794
L 1344 0
L 684 0
L 684 794
z
" transform="scale(0.015625)"/>
        <path id="DejaVuSans-4c" d="M 628 4666
L 1259 4666
L 1259 531
L 3531 531
L 3531 0
L 628 0
L 628 4666
z
" transform="scale(0.015625)"/>
        <path id="DejaVuSans-6f" d="M 1959 3097
Q 1497 3097 1228 2736
Q 959 2375 959 1747
Q 959 1119 1226 758
Q 1494 397 1959 397
Q 2419 397 2687 759
Q 2956 1122 2956 1747
Q 2956 2369 2687 2733
Q 2419 3097 1959 3097
z
M 1959 3584
Q 2709 3584 3137 3096
Q 3566 2609 3566 1747
Q 3566 888 3137 398
Q 2709 -91 1959 -91
Q 1206 -91 779 398
Q 353 888 353 1747
Q 353 2609 779 3096
Q 1206 3584 1959 3584
z
" transform="scale(0.015625)"/>
        <path id="DejaVuSans-67" d="M 2906 1791
Q 2906 2416 2648 2759
Q 2391 3103 1925 3103
Q 1463 3103 1205 2759
Q 947 2416 947 1791
Q 947 1169 1205 825
Q 1463 481 1925 481
Q 2391 481 2648 825
Q 2906 1169 2906 1791
z
M 3481 434
Q 3481 -459 3084 -895
Q 2688 -1331 1869 -1331
Q 1566 -1331 1297 -1286
Q 1028 -1241 775 -1147
L 775 -588
Q 1028 -725 1275 -790
Q 1522 -856 1778 -856
Q 2344 -856 2625 -561
Q 2906 -266 2906 331
L 2906 616
Q 2728 306 2450 153
Q 2172 0 1784 0
Q 1141 0 747 490
Q 353 981 353 1791
Q 353 2603 747 3093
Q 1141 3584 1784 3584
Q 2172 3584 2450 3431
Q 2728 3278 2906 2969
L 2906 3500
L 3481 3500
L 3481 434
z
" transform="scale(0.015625)"/>
        <path id="DejaVuSans-52" d="M 2841 2188
Q 3044 2119 3236 1894
Q 3428 1669 3622 1275
L 4263 0
L 3584 0
L 2988 1197
Q 2756 1666 2539 1819
Q 2322 1972 1947 1972
L 1259 1972
L 1259 0
L 628 0
L 628 4666
L 2053 4666
Q 2853 4666 3247 4331
Q 3641 3997 3641 3322
Q 3641 2881 3436 2590
Q 3231 2300 2841 2188
z
M 1259 4147
L 1259 2491
L 2053 2491
Q 2509 2491 2742 2702
Q 2975 2913 2975 3322
Q 2975 3731 2742 3939
Q 2509 4147 2053 4147
L 1259 4147
z
" transform="scale(0.015625)"/>
       </defs>
       <use xlink:href="#DejaVuSans-43"/>
       <use xlink:href="#DejaVuSans-61" transform="translate(69.824219 0)"/>
       <use xlink:href="#DejaVuSans-6c" transform="translate(131.103516 0)"/>
       <use xlink:href="#DejaVuSans-2e" transform="translate(158.886719 0)"/>
       <use xlink:href="#DejaVuSans-20" transform="translate(190.673828 0)"/>
       <use xlink:href="#DejaVuSans-4c" transform="translate(222.460938 0)"/>
       <use xlink:href="#DejaVuSans-6f" transform="translate(276.423828 0)"/>
       <use xlink:href="#DejaVuSans-67" transform="translate(337.605469 0)"/>
       <use xlink:href="#DejaVuSans-52" transform="translate(401.082031 0)"/>
       <use xlink:href="#DejaVuSans-65" transform="translate(466.064453 0)"/>
       <use xlink:href="#DejaVuSans-67" transform="translate(527.587891 0)"/>
      </g>
     </g>
    </g>
    <g id="ytick_2">
     <g id="line2d_14">
      <g>
       <use xlink:href="#me506bbd094" x="111.328125" y="391.067515" style="fill: #333333; stroke: #333333; stroke-width: 0.8"/>
      </g>
     </g>
     <g id="text_9">
      <!-- SVM linear -->
      <g style="fill: #333333" transform="translate(51.046875 394.866734) scale(0.1 -0.1)">
       <defs>
        <path id="DejaVuSans-53" d="M 3425 4513
L 3425 3897
Q 3066 4069 2747 4153
Q 2428 4238 2131 4238
Q 1616 4238 1336 4038
Q 1056 3838 1056 3469
Q 1056 3159 1242 3001
Q 1428 2844 1947 2747
L 2328 2669
Q 3034 2534 3370 2195
Q 3706 1856 3706 1288
Q 3706 609 3251 259
Q 2797 -91 1919 -91
Q 1588 -91 1214 -16
Q 841 59 441 206
L 441 856
Q 825 641 1194 531
Q 1563 422 1919 422
Q 2459 422 2753 634
Q 3047 847 3047 1241
Q 3047 1584 2836 1778
Q 2625 1972 2144 2069
L 1759 2144
Q 1053 2284 737 2584
Q 422 2884 422 3419
Q 422 4038 858 4394
Q 1294 4750 2059 4750
Q 2388 4750 2728 4690
Q 3069 4631 3425 4513
z
" transform="scale(0.015625)"/>
        <path id="DejaVuSans-56" d="M 1831 0
L 50 4666
L 709 4666
L 2188 738
L 3669 4666
L 4325 4666
L 2547 0
L 1831 0
z
" transform="scale(0.015625)"/>
        <path id="DejaVuSans-4d" d="M 628 4666
L 1569 4666
L 2759 1491
L 3956 4666
L 4897 4666
L 4897 0
L 4281 0
L 4281 4097
L 3078 897
L 2444 897
L 1241 4097
L 1241 0
L 628 0
L 628 4666
z
" transform="scale(0.015625)"/>
        <path id="DejaVuSans-69" d="M 603 3500
L 1178 3500
L 1178 0
L 603 0
L 603 3500
z
M 603 4863
L 1178 4863
L 1178 4134
L 603 4134
L 603 4863
z
" transform="scale(0.015625)"/>
        <path id="DejaVuSans-6e" d="M 3513 2113
L 3513 0
L 2938 0
L 2938 2094
Q 2938 2591 2744 2837
Q 2550 3084 2163 3084
Q 1697 3084 1428 2787
Q 1159 2491 1159 1978
L 1159 0
L 581 0
L 581 3500
L 1159 3500
L 1159 2956
Q 1366 3272 1645 3428
Q 1925 3584 2291 3584
Q 2894 3584 3203 3211
Q 3513 2838 3513 2113
z
" transform="scale(0.015625)"/>
       </defs>
       <use xlink:href="#DejaVuSans-53"/>
       <use xlink:href="#DejaVuSans-56" transform="translate(63.476562 0)"/>
       <use xlink:href="#DejaVuSans-4d" transform="translate(131.884766 0)"/>
       <use xlink:href="#DejaVuSans-20" transform="translate(218.164062 0)"/>
       <use xlink:href="#DejaVuSans-6c" transform="translate(249.951172 0)"/>
       <use xlink:href="#DejaVuSans-69" transform="translate(277.734375 0)"/>
       <use xlink:href="#DejaVuSans-6e" transform="translate(305.517578 0)"/>
       <use xlink:href="#DejaVuSans-65" transform="translate(368.896484 0)"/>
       <use xlink:href="#DejaVuSans-61" transform="translate(430.419922 0)"/>
       <use xlink:href="#DejaVuSans-72" transform="translate(491.699219 0)"/>
      </g>
     </g>
    </g>
    <g id="ytick_3">
     <g id="line2d_15">
      <g>
       <use xlink:href="#me506bbd094" x="111.328125" y="367.318378" style="fill: #333333; stroke: #333333; stroke-width: 0.8"/>
      </g>
     </g>
     <g id="text_10">
      <!-- GaussianNB -->
      <g style="fill: #333333" transform="translate(44.109375 371.117597) scale(0.1 -0.1)">
       <defs>
        <path id="DejaVuSans-47" d="M 3809 666
L 3809 1919
L 2778 1919
L 2778 2438
L 4434 2438
L 4434 434
Q 4069 175 3628 42
Q 3188 -91 2688 -91
Q 1594 -91 976 548
Q 359 1188 359 2328
Q 359 3472 976 4111
Q 1594 4750 2688 4750
Q 3144 4750 3555 4637
Q 3966 4525 4313 4306
L 4313 3634
Q 3963 3931 3569 4081
Q 3175 4231 2741 4231
Q 1884 4231 1454 3753
Q 1025 3275 1025 2328
Q 1025 1384 1454 906
Q 1884 428 2741 428
Q 3075 428 3337 486
Q 3600 544 3809 666
z
" transform="scale(0.015625)"/>
        <path id="DejaVuSans-73" d="M 2834 3397
L 2834 2853
Q 2591 2978 2328 3040
Q 2066 3103 1784 3103
Q 1356 3103 1142 2972
Q 928 2841 928 2578
Q 928 2378 1081 2264
Q 1234 2150 1697 2047
L 1894 2003
Q 2506 1872 2764 1633
Q 3022 1394 3022 966
Q 3022 478 2636 193
Q 2250 -91 1575 -91
Q 1294 -91 989 -36
Q 684 19 347 128
L 347 722
Q 666 556 975 473
Q 1284 391 1588 391
Q 1994 391 2212 530
Q 2431 669 2431 922
Q 2431 1156 2273 1281
Q 2116 1406 1581 1522
L 1381 1569
Q 847 1681 609 1914
Q 372 2147 372 2553
Q 372 3047 722 3315
Q 1072 3584 1716 3584
Q 2034 3584 2315 3537
Q 2597 3491 2834 3397
z
" transform="scale(0.015625)"/>
        <path id="DejaVuSans-4e" d="M 628 4666
L 1478 4666
L 3547 763
L 3547 4666
L 4159 4666
L 4159 0
L 3309 0
L 1241 3903
L 1241 0
L 628 0
L 628 4666
z
" transform="scale(0.015625)"/>
        <path id="DejaVuSans-42" d="M 1259 2228
L 1259 519
L 2272 519
Q 2781 519 3026 730
Q 3272 941 3272 1375
Q 3272 1813 3026 2020
Q 2781 2228 2272 2228
L 1259 2228
z
M 1259 4147
L 1259 2741
L 2194 2741
Q 2656 2741 2882 2914
Q 3109 3088 3109 3444
Q 3109 3797 2882 3972
Q 2656 4147 2194 4147
L 1259 4147
z
M 628 4666
L 2241 4666
Q 2963 4666 3353 4366
Q 3744 4066 3744 3513
Q 3744 3084 3544 2831
Q 3344 2578 2956 2516
Q 3422 2416 3680 2098
Q 3938 1781 3938 1306
Q 3938 681 3513 340
Q 3088 0 2303 0
L 628 0
L 628 4666
z
" transform="scale(0.015625)"/>
       </defs>
       <use xlink:href="#DejaVuSans-47"/>
       <use xlink:href="#DejaVuSans-61" transform="translate(77.490234 0)"/>
       <use xlink:href="#DejaVuSans-75" transform="translate(138.769531 0)"/>
       <use xlink:href="#DejaVuSans-73" transform="translate(202.148438 0)"/>
       <use xlink:href="#DejaVuSans-73" transform="translate(254.248047 0)"/>
       <use xlink:href="#DejaVuSans-69" transform="translate(306.347656 0)"/>
       <use xlink:href="#DejaVuSans-61" transform="translate(334.130859 0)"/>
       <use xlink:href="#DejaVuSans-6e" transform="translate(395.410156 0)"/>
       <use xlink:href="#DejaVuSans-4e" transform="translate(458.789062 0)"/>
       <use xlink:href="#DejaVuSans-42" transform="translate(533.59375 0)"/>
      </g>
     </g>
    </g>
    <g id="ytick_4">
     <g id="line2d_16">
      <g>
       <use xlink:href="#me506bbd094" x="111.328125" y="343.569241" style="fill: #333333; stroke: #333333; stroke-width: 0.8"/>
      </g>
     </g>
     <g id="text_11">
      <!-- SVM poly -->
      <g style="fill: #333333" transform="translate(58.16875 347.36846) scale(0.1 -0.1)">
       <defs>
        <path id="DejaVuSans-70" d="M 1159 525
L 1159 -1331
L 581 -1331
L 581 3500
L 1159 3500
L 1159 2969
Q 1341 3281 1617 3432
Q 1894 3584 2278 3584
Q 2916 3584 3314 3078
Q 3713 2572 3713 1747
Q 3713 922 3314 415
Q 2916 -91 2278 -91
Q 1894 -91 1617 61
Q 1341 213 1159 525
z
M 3116 1747
Q 3116 2381 2855 2742
Q 2594 3103 2138 3103
Q 1681 3103 1420 2742
Q 1159 2381 1159 1747
Q 1159 1113 1420 752
Q 1681 391 2138 391
Q 2594 391 2855 752
Q 3116 1113 3116 1747
z
" transform="scale(0.015625)"/>
       </defs>
       <use xlink:href="#DejaVuSans-53"/>
       <use xlink:href="#DejaVuSans-56" transform="translate(63.476562 0)"/>
       <use xlink:href="#DejaVuSans-4d" transform="translate(131.884766 0)"/>
       <use xlink:href="#DejaVuSans-20" transform="translate(218.164062 0)"/>
       <use xlink:href="#DejaVuSans-70" transform="translate(249.951172 0)"/>
       <use xlink:href="#DejaVuSans-6f" transform="translate(313.427734 0)"/>
       <use xlink:href="#DejaVuSans-6c" transform="translate(374.609375 0)"/>
       <use xlink:href="#DejaVuSans-79" transform="translate(402.392578 0)"/>
      </g>
     </g>
    </g>
    <g id="ytick_5">
     <g id="line2d_17">
      <g>
       <use xlink:href="#me506bbd094" x="111.328125" y="319.820104" style="fill: #333333; stroke: #333333; stroke-width: 0.8"/>
      </g>
     </g>
     <g id="text_12">
      <!-- Deep MLP -->
      <g style="fill: #333333" transform="translate(54.565625 323.619323) scale(0.1 -0.1)">
       <defs>
        <path id="DejaVuSans-44" d="M 1259 4147
L 1259 519
L 2022 519
Q 2988 519 3436 956
Q 3884 1394 3884 2338
Q 3884 3275 3436 3711
Q 2988 4147 2022 4147
L 1259 4147
z
M 628 4666
L 1925 4666
Q 3281 4666 3915 4102
Q 4550 3538 4550 2338
Q 4550 1131 3912 565
Q 3275 0 1925 0
L 628 0
L 628 4666
z
" transform="scale(0.015625)"/>
        <path id="DejaVuSans-50" d="M 1259 4147
L 1259 2394
L 2053 2394
Q 2494 2394 2734 2622
Q 2975 2850 2975 3272
Q 2975 3691 2734 3919
Q 2494 4147 2053 4147
L 1259 4147
z
M 628 4666
L 2053 4666
Q 2838 4666 3239 4311
Q 3641 3956 3641 3272
Q 3641 2581 3239 2228
Q 2838 1875 2053 1875
L 1259 1875
L 1259 0
L 628 0
L 628 4666
z
" transform="scale(0.015625)"/>
       </defs>
       <use xlink:href="#DejaVuSans-44"/>
       <use xlink:href="#DejaVuSans-65" transform="translate(77.001953 0)"/>
       <use xlink:href="#DejaVuSans-65" transform="translate(138.525391 0)"/>
       <use xlink:href="#DejaVuSans-70" transform="translate(200.048828 0)"/>
       <use xlink:href="#DejaVuSans-20" transform="translate(263.525391 0)"/>
       <use xlink:href="#DejaVuSans-4d" transform="translate(295.3125 0)"/>
       <use xlink:href="#DejaVuSans-4c" transform="translate(381.591797 0)"/>
       <use xlink:href="#DejaVuSans-50" transform="translate(437.304688 0)"/>
      </g>
     </g>
    </g>
    <g id="ytick_6">
     <g id="line2d_18">
      <g>
       <use xlink:href="#me506bbd094" x="111.328125" y="296.070967" style="fill: #333333; stroke: #333333; stroke-width: 0.8"/>
      </g>
     </g>
     <g id="text_13">
      <!-- QDA -->
      <g style="fill: #333333" transform="translate(82.090625 299.870186) scale(0.1 -0.1)">
       <defs>
        <path id="DejaVuSans-51" d="M 2522 4238
Q 1834 4238 1429 3725
Q 1025 3213 1025 2328
Q 1025 1447 1429 934
Q 1834 422 2522 422
Q 3209 422 3611 934
Q 4013 1447 4013 2328
Q 4013 3213 3611 3725
Q 3209 4238 2522 4238
z
M 3406 84
L 4238 -825
L 3475 -825
L 2784 -78
Q 2681 -84 2626 -87
Q 2572 -91 2522 -91
Q 1538 -91 948 567
Q 359 1225 359 2328
Q 359 3434 948 4092
Q 1538 4750 2522 4750
Q 3503 4750 4090 4092
Q 4678 3434 4678 2328
Q 4678 1516 4351 937
Q 4025 359 3406 84
z
" transform="scale(0.015625)"/>
       </defs>
       <use xlink:href="#DejaVuSans-51"/>
       <use xlink:href="#DejaVuSans-44" transform="translate(78.710938 0)"/>
       <use xlink:href="#DejaVuSans-41" transform="translate(153.962891 0)"/>
      </g>
     </g>
    </g>
    <g id="ytick_7">
     <g id="line2d_19">
      <g>
       <use xlink:href="#me506bbd094" x="111.328125" y="272.32183" style="fill: #333333; stroke: #333333; stroke-width: 0.8"/>
      </g>
     </g>
     <g id="text_14">
      <!-- SVM RBF -->
      <g style="fill: #333333" transform="translate(59.771875 276.121049) scale(0.1 -0.1)">
       <defs>
        <path id="DejaVuSans-46" d="M 628 4666
L 3309 4666
L 3309 4134
L 1259 4134
L 1259 2759
L 3109 2759
L 3109 2228
L 1259 2228
L 1259 0
L 628 0
L 628 4666
z
" transform="scale(0.015625)"/>
       </defs>
       <use xlink:href="#DejaVuSans-53"/>
       <use xlink:href="#DejaVuSans-56" transform="translate(63.476562 0)"/>
       <use xlink:href="#DejaVuSans-4d" transform="translate(131.884766 0)"/>
       <use xlink:href="#DejaVuSans-20" transform="translate(218.164062 0)"/>
       <use xlink:href="#DejaVuSans-52" transform="translate(249.951172 0)"/>
       <use xlink:href="#DejaVuSans-42" transform="translate(319.433594 0)"/>
       <use xlink:href="#DejaVuSans-46" transform="translate(388.037109 0)"/>
      </g>
     </g>
    </g>
    <g id="ytick_8">
     <g id="line2d_20">
      <g>
       <use xlink:href="#me506bbd094" x="111.328125" y="248.572693" style="fill: #333333; stroke: #333333; stroke-width: 0.8"/>
      </g>
     </g>
     <g id="text_15">
      <!-- RandomForest -->
      <g style="fill: #333333" transform="translate(32.254688 252.371912) scale(0.1 -0.1)">
       <defs>
        <path id="DejaVuSans-64" d="M 2906 2969
L 2906 4863
L 3481 4863
L 3481 0
L 2906 0
L 2906 525
Q 2725 213 2448 61
Q 2172 -91 1784 -91
Q 1150 -91 751 415
Q 353 922 353 1747
Q 353 2572 751 3078
Q 1150 3584 1784 3584
Q 2172 3584 2448 3432
Q 2725 3281 2906 2969
z
M 947 1747
Q 947 1113 1208 752
Q 1469 391 1925 391
Q 2381 391 2643 752
Q 2906 1113 2906 1747
Q 2906 2381 2643 2742
Q 2381 3103 1925 3103
Q 1469 3103 1208 2742
Q 947 2381 947 1747
z
" transform="scale(0.015625)"/>
        <path id="DejaVuSans-6d" d="M 3328 2828
Q 3544 3216 3844 3400
Q 4144 3584 4550 3584
Q 5097 3584 5394 3201
Q 5691 2819 5691 2113
L 5691 0
L 5113 0
L 5113 2094
Q 5113 2597 4934 2840
Q 4756 3084 4391 3084
Q 3944 3084 3684 2787
Q 3425 2491 3425 1978
L 3425 0
L 2847 0
L 2847 2094
Q 2847 2600 2669 2842
Q 2491 3084 2119 3084
Q 1678 3084 1418 2786
Q 1159 2488 1159 1978
L 1159 0
L 581 0
L 581 3500
L 1159 3500
L 1159 2956
Q 1356 3278 1631 3431
Q 1906 3584 2284 3584
Q 2666 3584 2933 3390
Q 3200 3197 3328 2828
z
" transform="scale(0.015625)"/>
        <path id="DejaVuSans-74" d="M 1172 4494
L 1172 3500
L 2356 3500
L 2356 3053
L 1172 3053
L 1172 1153
Q 1172 725 1289 603
Q 1406 481 1766 481
L 2356 481
L 2356 0
L 1766 0
Q 1100 0 847 248
Q 594 497 594 1153
L 594 3053
L 172 3053
L 172 3500
L 594 3500
L 594 4494
L 1172 4494
z
" transform="scale(0.015625)"/>
       </defs>
       <use xlink:href="#DejaVuSans-52"/>
       <use xlink:href="#DejaVuSans-61" transform="translate(67.232422 0)"/>
       <use xlink:href="#DejaVuSans-6e" transform="translate(128.511719 0)"/>
       <use xlink:href="#DejaVuSans-64" transform="translate(191.890625 0)"/>
       <use xlink:href="#DejaVuSans-6f" transform="translate(255.367188 0)"/>
       <use xlink:href="#DejaVuSans-6d" transform="translate(316.548828 0)"/>
       <use xlink:href="#DejaVuSans-46" transform="translate(413.960938 0)"/>
       <use xlink:href="#DejaVuSans-6f" transform="translate(467.855469 0)"/>
       <use xlink:href="#DejaVuSans-72" transform="translate(529.037109 0)"/>
       <use xlink:href="#DejaVuSans-65" transform="translate(567.900391 0)"/>
       <use xlink:href="#DejaVuSans-73" transform="translate(629.423828 0)"/>
       <use xlink:href="#DejaVuSans-74" transform="translate(681.523438 0)"/>
      </g>
     </g>
    </g>
    <g id="ytick_9">
     <g id="line2d_21">
      <g>
       <use xlink:href="#me506bbd094" x="111.328125" y="224.823557" style="fill: #333333; stroke: #333333; stroke-width: 0.8"/>
      </g>
     </g>
     <g id="text_16">
      <!-- ExtraTrees -->
      <g style="fill: #333333" transform="translate(51.896875 228.622775) scale(0.1 -0.1)">
       <defs>
        <path id="DejaVuSans-45" d="M 628 4666
L 3578 4666
L 3578 4134
L 1259 4134
L 1259 2753
L 3481 2753
L 3481 2222
L 1259 2222
L 1259 531
L 3634 531
L 3634 0
L 628 0
L 628 4666
z
" transform="scale(0.015625)"/>
        <path id="DejaVuSans-78" d="M 3513 3500
L 2247 1797
L 3578 0
L 2900 0
L 1881 1375
L 863 0
L 184 0
L 1544 1831
L 300 3500
L 978 3500
L 1906 2253
L 2834 3500
L 3513 3500
z
" transform="scale(0.015625)"/>
        <path id="DejaVuSans-54" d="M -19 4666
L 3928 4666
L 3928 4134
L 2272 4134
L 2272 0
L 1638 0
L 1638 4134
L -19 4134
L -19 4666
z
" transform="scale(0.015625)"/>
       </defs>
       <use xlink:href="#DejaVuSans-45"/>
       <use xlink:href="#DejaVuSans-78" transform="translate(63.183594 0)"/>
       <use xlink:href="#DejaVuSans-74" transform="translate(122.363281 0)"/>
       <use xlink:href="#DejaVuSans-72" transform="translate(161.572266 0)"/>
       <use xlink:href="#DejaVuSans-61" transform="translate(202.685547 0)"/>
       <use xlink:href="#DejaVuSans-54" transform="translate(263.964844 0)"/>
       <use xlink:href="#DejaVuSans-72" transform="translate(310.298828 0)"/>
       <use xlink:href="#DejaVuSans-65" transform="translate(349.162109 0)"/>
       <use xlink:href="#DejaVuSans-65" transform="translate(410.685547 0)"/>
       <use xlink:href="#DejaVuSans-73" transform="translate(472.208984 0)"/>
      </g>
     </g>
    </g>
    <g id="ytick_10">
     <g id="line2d_22">
      <g>
       <use xlink:href="#me506bbd094" x="111.328125" y="201.07442" style="fill: #333333; stroke: #333333; stroke-width: 0.8"/>
      </g>
     </g>
     <g id="text_17">
      <!-- Bagging KNN -->
      <g style="fill: #333333" transform="translate(38.479687 204.873638) scale(0.1 -0.1)">
       <defs>
        <path id="DejaVuSans-4b" d="M 628 4666
L 1259 4666
L 1259 2694
L 3353 4666
L 4166 4666
L 1850 2491
L 4331 0
L 3500 0
L 1259 2247
L 1259 0
L 628 0
L 628 4666
z
" transform="scale(0.015625)"/>
       </defs>
       <use xlink:href="#DejaVuSans-42"/>
       <use xlink:href="#DejaVuSans-61" transform="translate(68.603516 0)"/>
       <use xlink:href="#DejaVuSans-67" transform="translate(129.882812 0)"/>
       <use xlink:href="#DejaVuSans-67" transform="translate(193.359375 0)"/>
       <use xlink:href="#DejaVuSans-69" transform="translate(256.835938 0)"/>
       <use xlink:href="#DejaVuSans-6e" transform="translate(284.619141 0)"/>
       <use xlink:href="#DejaVuSans-67" transform="translate(347.998047 0)"/>
       <use xlink:href="#DejaVuSans-20" transform="translate(411.474609 0)"/>
       <use xlink:href="#DejaVuSans-4b" transform="translate(443.261719 0)"/>
       <use xlink:href="#DejaVuSans-4e" transform="translate(508.837891 0)"/>
       <use xlink:href="#DejaVuSans-4e" transform="translate(583.642578 0)"/>
      </g>
     </g>
    </g>
    <g id="ytick_11">
     <g id="line2d_23">
      <g>
       <use xlink:href="#me506bbd094" x="111.328125" y="177.325283" style="fill: #333333; stroke: #333333; stroke-width: 0.8"/>
      </g>
     </g>
     <g id="text_18">
      <!-- HistGB -->
      <g style="fill: #333333" transform="translate(70.290625 181.124501) scale(0.1 -0.1)">
       <defs>
        <path id="DejaVuSans-48" d="M 628 4666
L 1259 4666
L 1259 2753
L 3553 2753
L 3553 4666
L 4184 4666
L 4184 0
L 3553 0
L 3553 2222
L 1259 2222
L 1259 0
L 628 0
L 628 4666
z
" transform="scale(0.015625)"/>
       </defs>
       <use xlink:href="#DejaVuSans-48"/>
       <use xlink:href="#DejaVuSans-69" transform="translate(75.195312 0)"/>
       <use xlink:href="#DejaVuSans-73" transform="translate(102.978516 0)"/>
       <use xlink:href="#DejaVuSans-74" transform="translate(155.078125 0)"/>
       <use xlink:href="#DejaVuSans-47" transform="translate(194.287109 0)"/>
       <use xlink:href="#DejaVuSans-42" transform="translate(271.777344 0)"/>
      </g>
     </g>
    </g>
    <g id="ytick_12">
     <g id="line2d_24">
      <g>
       <use xlink:href="#me506bbd094" x="111.328125" y="153.576146" style="fill: #333333; stroke: #333333; stroke-width: 0.8"/>
      </g>
     </g>
     <g id="text_19">
      <!-- GBDT -->
      <g style="fill: #333333" transform="translate(75.910938 157.375364) scale(0.1 -0.1)">
       <use xlink:href="#DejaVuSans-47"/>
       <use xlink:href="#DejaVuSans-42" transform="translate(77.490234 0)"/>
       <use xlink:href="#DejaVuSans-44" transform="translate(146.09375 0)"/>
       <use xlink:href="#DejaVuSans-54" transform="translate(223.095703 0)"/>
      </g>
     </g>
    </g>
    <g id="ytick_13">
     <g id="line2d_25">
      <g>
       <use xlink:href="#me506bbd094" x="111.328125" y="129.827009" style="fill: #333333; stroke: #333333; stroke-width: 0.8"/>
      </g>
     </g>
     <g id="text_20">
      <!-- KNN dist+scaled -->
      <g style="fill: #333333" transform="translate(20.878125 133.626228) scale(0.1 -0.1)">
       <defs>
        <path id="DejaVuSans-2b" d="M 2944 4013
L 2944 2272
L 4684 2272
L 4684 1741
L 2944 1741
L 2944 0
L 2419 0
L 2419 1741
L 678 1741
L 678 2272
L 2419 2272
L 2419 4013
L 2944 4013
z
" transform="scale(0.015625)"/>
       </defs>
       <use xlink:href="#DejaVuSans-4b"/>
       <use xlink:href="#DejaVuSans-4e" transform="translate(65.576172 0)"/>
       <use xlink:href="#DejaVuSans-4e" transform="translate(140.380859 0)"/>
       <use xlink:href="#DejaVuSans-20" transform="translate(215.185547 0)"/>
       <use xlink:href="#DejaVuSans-64" transform="translate(246.972656 0)"/>
       <use xlink:href="#DejaVuSans-69" transform="translate(310.449219 0)"/>
       <use xlink:href="#DejaVuSans-73" transform="translate(338.232422 0)"/>
       <use xlink:href="#DejaVuSans-74" transform="translate(390.332031 0)"/>
       <use xlink:href="#DejaVuSans-2b" transform="translate(429.541016 0)"/>
       <use xlink:href="#DejaVuSans-73" transform="translate(513.330078 0)"/>
       <use xlink:href="#DejaVuSans-63" transform="translate(565.429688 0)"/>
       <use xlink:href="#DejaVuSans-61" transform="translate(620.410156 0)"/>
       <use xlink:href="#DejaVuSans-6c" transform="translate(681.689453 0)"/>
       <use xlink:href="#DejaVuSans-65" transform="translate(709.472656 0)"/>
       <use xlink:href="#DejaVuSans-64" transform="translate(770.996094 0)"/>
      </g>
     </g>
    </g>
    <g id="ytick_14">
     <g id="line2d_26">
      <g>
       <use xlink:href="#me506bbd094" x="111.328125" y="106.077872" style="fill: #333333; stroke: #333333; stroke-width: 0.8"/>
      </g>
     </g>
     <g id="text_21">
      <!-- KNN -->
      <g style="fill: #333333" transform="translate(82.807812 109.877091) scale(0.1 -0.1)">
       <use xlink:href="#DejaVuSans-4b"/>
       <use xlink:href="#DejaVuSans-4e" transform="translate(65.576172 0)"/>
       <use xlink:href="#DejaVuSans-4e" transform="translate(140.380859 0)"/>
      </g>
     </g>
    </g>
    <g id="ytick_15">
     <g id="line2d_27">
      <g>
       <use xlink:href="#me506bbd094" x="111.328125" y="82.328735" style="fill: #333333; stroke: #333333; stroke-width: 0.8"/>
      </g>
     </g>
     <g id="text_22">
      <!-- NN+L-KNN -->
      <g style="fill: #333333" transform="translate(50.460938 86.127954) scale(0.1 -0.1)">
       <defs>
        <path id="DejaVuSans-2d" d="M 313 2009
L 1997 2009
L 1997 1497
L 313 1497
L 313 2009
z
" transform="scale(0.015625)"/>
       </defs>
       <use xlink:href="#DejaVuSans-4e"/>
       <use xlink:href="#DejaVuSans-4e" transform="translate(74.804688 0)"/>
       <use xlink:href="#DejaVuSans-2b" transform="translate(149.609375 0)"/>
       <use xlink:href="#DejaVuSans-4c" transform="translate(233.398438 0)"/>
       <use xlink:href="#DejaVuSans-2d" transform="translate(287.361328 0)"/>
       <use xlink:href="#DejaVuSans-4b" transform="translate(323.445312 0)"/>
       <use xlink:href="#DejaVuSans-4e" transform="translate(389.021484 0)"/>
       <use xlink:href="#DejaVuSans-4e" transform="translate(463.826172 0)"/>
      </g>
     </g>
    </g>
    <g id="ytick_16">
     <g id="line2d_28">
      <g>
       <use xlink:href="#me506bbd094" x="111.328125" y="58.579598" style="fill: #333333; stroke: #333333; stroke-width: 0.8"/>
      </g>
     </g>
     <g id="text_23">
      <!-- LDA+KNN -->
      <g style="fill: #333333" transform="translate(54.490625 62.378817) scale(0.1 -0.1)">
       <use xlink:href="#DejaVuSans-4c"/>
       <use xlink:href="#DejaVuSans-44" transform="translate(55.712891 0)"/>
       <use xlink:href="#DejaVuSans-41" transform="translate(130.964844 0)"/>
       <use xlink:href="#DejaVuSans-2b" transform="translate(199.373047 0)"/>
       <use xlink:href="#DejaVuSans-4b" transform="translate(283.162109 0)"/>
       <use xlink:href="#DejaVuSans-4e" transform="translate(348.738281 0)"/>
       <use xlink:href="#DejaVuSans-4e" transform="translate(423.542969 0)"/>
      </g>
     </g>
    </g>
    <g id="text_24">
     <!-- Modele -->
     <g style="fill: #1f1f1f" transform="translate(14.798437 254.787969) rotate(-90) scale(0.1 -0.1)">
      <use xlink:href="#DejaVuSans-4d"/>
      <use xlink:href="#DejaVuSans-6f" transform="translate(86.279297 0)"/>
      <use xlink:href="#DejaVuSans-64" transform="translate(147.460938 0)"/>
      <use xlink:href="#DejaVuSans-65" transform="translate(210.9375 0)"/>
      <use xlink:href="#DejaVuSans-6c" transform="translate(272.460938 0)"/>
      <use xlink:href="#DejaVuSans-65" transform="translate(300.244141 0)"/>
     </g>
    </g>
   </g>
   <g id="patch_19">
    <path d="M 111.328125 443.078125
L 111.328125 30.318125
" style="fill: none; stroke: #555555; stroke-width: 0.8; stroke-linejoin: miter; stroke-linecap: square"/>
   </g>
   <g id="patch_20">
    <path d="M 111.328125 443.078125
L 718.670694 443.078125
" style="fill: none; stroke: #555555; stroke-width: 0.8; stroke-linejoin: miter; stroke-linecap: square"/>
   </g>
   <g id="text_25">
    <!-- 16.7% | 70.3 cm -->
    <g style="fill: #1f1f1f" transform="translate(210.892765 417.32673) scale(0.095 -0.095)">
     <defs>
      <path id="DejaVuSans-37" d="M 525 4666
L 3525 4666
L 3525 4397
L 1831 0
L 1172 0
L 2766 4134
L 525 4134
L 525 4666
z
" transform="scale(0.015625)"/>
      <path id="DejaVuSans-7c" d="M 1344 4891
L 1344 -1509
L 813 -1509
L 813 4891
L 1344 4891
z
" transform="scale(0.015625)"/>
      <path id="DejaVuSans-33" d="M 2597 2516
Q 3050 2419 3304 2112
Q 3559 1806 3559 1356
Q 3559 666 3084 287
Q 2609 -91 1734 -91
Q 1441 -91 1130 -33
Q 819 25 488 141
L 488 750
Q 750 597 1062 519
Q 1375 441 1716 441
Q 2309 441 2620 675
Q 2931 909 2931 1356
Q 2931 1769 2642 2001
Q 2353 2234 1838 2234
L 1294 2234
L 1294 2753
L 1863 2753
Q 2328 2753 2575 2939
Q 2822 3125 2822 3475
Q 2822 3834 2567 4026
Q 2313 4219 1838 4219
Q 1578 4219 1281 4162
Q 984 4106 628 3988
L 628 4550
Q 988 4650 1302 4700
Q 1616 4750 1894 4750
Q 2613 4750 3031 4423
Q 3450 4097 3450 3541
Q 3450 3153 3228 2886
Q 3006 2619 2597 2516
z
" transform="scale(0.015625)"/>
     </defs>
     <use xlink:href="#DejaVuSans-31"/>
     <use xlink:href="#DejaVuSans-36" transform="translate(63.623047 0)"/>
     <use xlink:href="#DejaVuSans-2e" transform="translate(127.246094 0)"/>
     <use xlink:href="#DejaVuSans-37" transform="translate(159.033203 0)"/>
     <use xlink:href="#DejaVuSans-25" transform="translate(222.65625 0)"/>
     <use xlink:href="#DejaVuSans-20" transform="translate(317.675781 0)"/>
     <use xlink:href="#DejaVuSans-7c" transform="translate(349.462891 0)"/>
     <use xlink:href="#DejaVuSans-20" transform="translate(383.154297 0)"/>
     <use xlink:href="#DejaVuSans-37" transform="translate(414.941406 0)"/>
     <use xlink:href="#DejaVuSans-30" transform="translate(478.564453 0)"/>
     <use xlink:href="#DejaVuSans-2e" transform="translate(542.1875 0)"/>
     <use xlink:href="#DejaVuSans-33" transform="translate(573.974609 0)"/>
     <use xlink:href="#DejaVuSans-20" transform="translate(637.597656 0)"/>
     <use xlink:href="#DejaVuSans-63" transform="translate(669.384766 0)"/>
     <use xlink:href="#DejaVuSans-6d" transform="translate(724.365234 0)"/>
    </g>
   </g>
   <g id="text_26">
    <!-- 19.0% | 69.7 cm -->
    <g style="fill: #1f1f1f" transform="translate(224.073243 393.577593) scale(0.095 -0.095)">
     <defs>
      <path id="DejaVuSans-39" d="M 703 97
L 703 672
Q 941 559 1184 500
Q 1428 441 1663 441
Q 2288 441 2617 861
Q 2947 1281 2994 2138
Q 2813 1869 2534 1725
Q 2256 1581 1919 1581
Q 1219 1581 811 2004
Q 403 2428 403 3163
Q 403 3881 828 4315
Q 1253 4750 1959 4750
Q 2769 4750 3195 4129
Q 3622 3509 3622 2328
Q 3622 1225 3098 567
Q 2575 -91 1691 -91
Q 1453 -91 1209 -44
Q 966 3 703 97
z
M 1959 2075
Q 2384 2075 2632 2365
Q 2881 2656 2881 3163
Q 2881 3666 2632 3958
Q 2384 4250 1959 4250
Q 1534 4250 1286 3958
Q 1038 3666 1038 3163
Q 1038 2656 1286 2365
Q 1534 2075 1959 2075
z
" transform="scale(0.015625)"/>
     </defs>
     <use xlink:href="#DejaVuSans-31"/>
     <use xlink:href="#DejaVuSans-39" transform="translate(63.623047 0)"/>
     <use xlink:href="#DejaVuSans-2e" transform="translate(127.246094 0)"/>
     <use xlink:href="#DejaVuSans-30" transform="translate(159.033203 0)"/>
     <use xlink:href="#DejaVuSans-25" transform="translate(222.65625 0)"/>
     <use xlink:href="#DejaVuSans-20" transform="translate(317.675781 0)"/>
     <use xlink:href="#DejaVuSans-7c" transform="translate(349.462891 0)"/>
     <use xlink:href="#DejaVuSans-20" transform="translate(383.154297 0)"/>
     <use xlink:href="#DejaVuSans-36" transform="translate(414.941406 0)"/>
     <use xlink:href="#DejaVuSans-39" transform="translate(478.564453 0)"/>
     <use xlink:href="#DejaVuSans-2e" transform="translate(542.1875 0)"/>
     <use xlink:href="#DejaVuSans-37" transform="translate(573.974609 0)"/>
     <use xlink:href="#DejaVuSans-20" transform="translate(637.597656 0)"/>
     <use xlink:href="#DejaVuSans-63" transform="translate(669.384766 0)"/>
     <use xlink:href="#DejaVuSans-6d" transform="translate(724.365234 0)"/>
    </g>
   </g>
   <g id="text_27">
    <!-- 27.5% | 61.2 cm -->
    <g style="fill: #1f1f1f" transform="translate(274.367174 369.828456) scale(0.095 -0.095)">
     <defs>
      <path id="DejaVuSans-35" d="M 691 4666
L 3169 4666
L 3169 4134
L 1269 4134
L 1269 2991
Q 1406 3038 1543 3061
Q 1681 3084 1819 3084
Q 2600 3084 3056 2656
Q 3513 2228 3513 1497
Q 3513 744 3044 326
Q 2575 -91 1722 -91
Q 1428 -91 1123 -41
Q 819 9 494 109
L 494 744
Q 775 591 1075 516
Q 1375 441 1709 441
Q 2250 441 2565 725
Q 2881 1009 2881 1497
Q 2881 1984 2565 2268
Q 2250 2553 1709 2553
Q 1456 2553 1204 2497
Q 953 2441 691 2322
L 691 4666
z
" transform="scale(0.015625)"/>
     </defs>
     <use xlink:href="#DejaVuSans-32"/>
     <use xlink:href="#DejaVuSans-37" transform="translate(63.623047 0)"/>
     <use xlink:href="#DejaVuSans-2e" transform="translate(127.246094 0)"/>
     <use xlink:href="#DejaVuSans-35" transform="translate(159.033203 0)"/>
     <use xlink:href="#DejaVuSans-25" transform="translate(222.65625 0)"/>
     <use xlink:href="#DejaVuSans-20" transform="translate(317.675781 0)"/>
     <use xlink:href="#DejaVuSans-7c" transform="translate(349.462891 0)"/>
     <use xlink:href="#DejaVuSans-20" transform="translate(383.154297 0)"/>
     <use xlink:href="#DejaVuSans-36" transform="translate(414.941406 0)"/>
     <use xlink:href="#DejaVuSans-31" transform="translate(478.564453 0)"/>
     <use xlink:href="#DejaVuSans-2e" transform="translate(542.1875 0)"/>
     <use xlink:href="#DejaVuSans-32" transform="translate(573.974609 0)"/>
     <use xlink:href="#DejaVuSans-20" transform="translate(637.597656 0)"/>
     <use xlink:href="#DejaVuSans-63" transform="translate(669.384766 0)"/>
     <use xlink:href="#DejaVuSans-6d" transform="translate(724.365234 0)"/>
    </g>
   </g>
   <g id="text_28">
    <!-- 63.2% | 36.0 cm -->
    <g style="fill: #1f1f1f" transform="translate(484.907973 346.079319) scale(0.095 -0.095)">
     <use xlink:href="#DejaVuSans-36"/>
     <use xlink:href="#DejaVuSans-33" transform="translate(63.623047 0)"/>
     <use xlink:href="#DejaVuSans-2e" transform="translate(127.246094 0)"/>
     <use xlink:href="#DejaVuSans-32" transform="translate(159.033203 0)"/>
     <use xlink:href="#DejaVuSans-25" transform="translate(222.65625 0)"/>
     <use xlink:href="#DejaVuSans-20" transform="translate(317.675781 0)"/>
     <use xlink:href="#DejaVuSans-7c" transform="translate(349.462891 0)"/>
     <use xlink:href="#DejaVuSans-20" transform="translate(383.154297 0)"/>
     <use xlink:href="#DejaVuSans-33" transform="translate(414.941406 0)"/>
     <use xlink:href="#DejaVuSans-36" transform="translate(478.564453 0)"/>
     <use xlink:href="#DejaVuSans-2e" transform="translate(542.1875 0)"/>
     <use xlink:href="#DejaVuSans-30" transform="translate(573.974609 0)"/>
     <use xlink:href="#DejaVuSans-20" transform="translate(637.597656 0)"/>
     <use xlink:href="#DejaVuSans-63" transform="translate(669.384766 0)"/>
     <use xlink:href="#DejaVuSans-6d" transform="translate(724.365234 0)"/>
    </g>
   </g>
   <g id="text_29">
    <!-- 63.6% | 31.8 cm -->
    <g style="fill: #1f1f1f" transform="translate(486.989101 322.330182) scale(0.095 -0.095)">
     <use xlink:href="#DejaVuSans-36"/>
     <use xlink:href="#DejaVuSans-33" transform="translate(63.623047 0)"/>
     <use xlink:href="#DejaVuSans-2e" transform="translate(127.246094 0)"/>
     <use xlink:href="#DejaVuSans-36" transform="translate(159.033203 0)"/>
     <use xlink:href="#DejaVuSans-25" transform="translate(222.65625 0)"/>
     <use xlink:href="#DejaVuSans-20" transform="translate(317.675781 0)"/>
     <use xlink:href="#DejaVuSans-7c" transform="translate(349.462891 0)"/>
     <use xlink:href="#DejaVuSans-20" transform="translate(383.154297 0)"/>
     <use xlink:href="#DejaVuSans-33" transform="translate(414.941406 0)"/>
     <use xlink:href="#DejaVuSans-31" transform="translate(478.564453 0)"/>
     <use xlink:href="#DejaVuSans-2e" transform="translate(542.1875 0)"/>
     <use xlink:href="#DejaVuSans-38" transform="translate(573.974609 0)"/>
     <use xlink:href="#DejaVuSans-20" transform="translate(637.597656 0)"/>
     <use xlink:href="#DejaVuSans-63" transform="translate(669.384766 0)"/>
     <use xlink:href="#DejaVuSans-6d" transform="translate(724.365234 0)"/>
    </g>
   </g>
   <g id="text_30">
    <!-- 73.0% | 25.3 cm -->
    <g style="fill: #1f1f1f" transform="translate(542.832707 298.581045) scale(0.095 -0.095)">
     <use xlink:href="#DejaVuSans-37"/>
     <use xlink:href="#DejaVuSans-33" transform="translate(63.623047 0)"/>
     <use xlink:href="#DejaVuSans-2e" transform="translate(127.246094 0)"/>
     <use xlink:href="#DejaVuSans-30" transform="translate(159.033203 0)"/>
     <use xlink:href="#DejaVuSans-25" transform="translate(222.65625 0)"/>
     <use xlink:href="#DejaVuSans-20" transform="translate(317.675781 0)"/>
     <use xlink:href="#DejaVuSans-7c" transform="translate(349.462891 0)"/>
     <use xlink:href="#DejaVuSans-20" transform="translate(383.154297 0)"/>
     <use xlink:href="#DejaVuSans-32" transform="translate(414.941406 0)"/>
     <use xlink:href="#DejaVuSans-35" transform="translate(478.564453 0)"/>
     <use xlink:href="#DejaVuSans-2e" transform="translate(542.1875 0)"/>
     <use xlink:href="#DejaVuSans-33" transform="translate(573.974609 0)"/>
     <use xlink:href="#DejaVuSans-20" transform="translate(637.597656 0)"/>
     <use xlink:href="#DejaVuSans-63" transform="translate(669.384766 0)"/>
     <use xlink:href="#DejaVuSans-6d" transform="translate(724.365234 0)"/>
    </g>
   </g>
   <g id="text_31">
    <!-- 85.2% | 12.1 cm -->
    <g style="fill: #1f1f1f" transform="translate(614.458201 274.831909) scale(0.095 -0.095)">
     <use xlink:href="#DejaVuSans-38"/>
     <use xlink:href="#DejaVuSans-35" transform="translate(63.623047 0)"/>
     <use xlink:href="#DejaVuSans-2e" transform="translate(127.246094 0)"/>
     <use xlink:href="#DejaVuSans-32" transform="translate(159.033203 0)"/>
     <use xlink:href="#DejaVuSans-25" transform="translate(222.65625 0)"/>
     <use xlink:href="#DejaVuSans-20" transform="translate(317.675781 0)"/>
     <use xlink:href="#DejaVuSans-7c" transform="translate(349.462891 0)"/>
     <use xlink:href="#DejaVuSans-20" transform="translate(383.154297 0)"/>
     <use xlink:href="#DejaVuSans-31" transform="translate(414.941406 0)"/>
     <use xlink:href="#DejaVuSans-32" transform="translate(478.564453 0)"/>
     <use xlink:href="#DejaVuSans-2e" transform="translate(542.1875 0)"/>
     <use xlink:href="#DejaVuSans-31" transform="translate(573.974609 0)"/>
     <use xlink:href="#DejaVuSans-20" transform="translate(637.597656 0)"/>
     <use xlink:href="#DejaVuSans-63" transform="translate(669.384766 0)"/>
     <use xlink:href="#DejaVuSans-6d" transform="translate(724.365234 0)"/>
    </g>
   </g>
   <g id="text_32">
    <!-- 96.5% | 3.0 cm -->
    <g style="fill: #1f1f1f" transform="translate(681.401157 251.082772) scale(0.095 -0.095)">
     <use xlink:href="#DejaVuSans-39"/>
     <use xlink:href="#DejaVuSans-36" transform="translate(63.623047 0)"/>
     <use xlink:href="#DejaVuSans-2e" transform="translate(127.246094 0)"/>
     <use xlink:href="#DejaVuSans-35" transform="translate(159.033203 0)"/>
     <use xlink:href="#DejaVuSans-25" transform="translate(222.65625 0)"/>
     <use xlink:href="#DejaVuSans-20" transform="translate(317.675781 0)"/>
     <use xlink:href="#DejaVuSans-7c" transform="translate(349.462891 0)"/>
     <use xlink:href="#DejaVuSans-20" transform="translate(383.154297 0)"/>
     <use xlink:href="#DejaVuSans-33" transform="translate(414.941406 0)"/>
     <use xlink:href="#DejaVuSans-2e" transform="translate(478.564453 0)"/>
     <use xlink:href="#DejaVuSans-30" transform="translate(510.351562 0)"/>
     <use xlink:href="#DejaVuSans-20" transform="translate(573.974609 0)"/>
     <use xlink:href="#DejaVuSans-63" transform="translate(605.761719 0)"/>
     <use xlink:href="#DejaVuSans-6d" transform="translate(660.742188 0)"/>
    </g>
   </g>
   <g id="text_33">
    <!-- 96.8% | 2.8 cm -->
    <g style="fill: #1f1f1f" transform="translate(682.788576 227.333635) scale(0.095 -0.095)">
     <use xlink:href="#DejaVuSans-39"/>
     <use xlink:href="#DejaVuSans-36" transform="translate(63.623047 0)"/>
     <use xlink:href="#DejaVuSans-2e" transform="translate(127.246094 0)"/>
     <use xlink:href="#DejaVuSans-38" transform="translate(159.033203 0)"/>
     <use xlink:href="#DejaVuSans-25" transform="translate(222.65625 0)"/>
     <use xlink:href="#DejaVuSans-20" transform="translate(317.675781 0)"/>
     <use xlink:href="#DejaVuSans-7c" transform="translate(349.462891 0)"/>
     <use xlink:href="#DejaVuSans-20" transform="translate(383.154297 0)"/>
     <use xlink:href="#DejaVuSans-32" transform="translate(414.941406 0)"/>
     <use xlink:href="#DejaVuSans-2e" transform="translate(478.564453 0)"/>
     <use xlink:href="#DejaVuSans-38" transform="translate(510.351562 0)"/>
     <use xlink:href="#DejaVuSans-20" transform="translate(573.974609 0)"/>
     <use xlink:href="#DejaVuSans-63" transform="translate(605.761719 0)"/>
     <use xlink:href="#DejaVuSans-6d" transform="translate(660.742188 0)"/>
    </g>
   </g>
   <g id="text_34">
    <!-- 97.7% | 1.9 cm -->
    <g style="fill: #1f1f1f" transform="translate(688.511678 203.584498) scale(0.095 -0.095)">
     <use xlink:href="#DejaVuSans-39"/>
     <use xlink:href="#DejaVuSans-37" transform="translate(63.623047 0)"/>
     <use xlink:href="#DejaVuSans-2e" transform="translate(127.246094 0)"/>
     <use xlink:href="#DejaVuSans-37" transform="translate(159.033203 0)"/>
     <use xlink:href="#DejaVuSans-25" transform="translate(222.65625 0)"/>
     <use xlink:href="#DejaVuSans-20" transform="translate(317.675781 0)"/>
     <use xlink:href="#DejaVuSans-7c" transform="translate(349.462891 0)"/>
     <use xlink:href="#DejaVuSans-20" transform="translate(383.154297 0)"/>
     <use xlink:href="#DejaVuSans-31" transform="translate(414.941406 0)"/>
     <use xlink:href="#DejaVuSans-2e" transform="translate(478.564453 0)"/>
     <use xlink:href="#DejaVuSans-39" transform="translate(510.351562 0)"/>
     <use xlink:href="#DejaVuSans-20" transform="translate(573.974609 0)"/>
     <use xlink:href="#DejaVuSans-63" transform="translate(605.761719 0)"/>
     <use xlink:href="#DejaVuSans-6d" transform="translate(660.742188 0)"/>
    </g>
   </g>
   <g id="text_35">
    <!-- 97.8% | 1.8 cm -->
    <g style="fill: #1f1f1f" transform="translate(688.858533 179.835361) scale(0.095 -0.095)">
     <use xlink:href="#DejaVuSans-39"/>
     <use xlink:href="#DejaVuSans-37" transform="translate(63.623047 0)"/>
     <use xlink:href="#DejaVuSans-2e" transform="translate(127.246094 0)"/>
     <use xlink:href="#DejaVuSans-38" transform="translate(159.033203 0)"/>
     <use xlink:href="#DejaVuSans-25" transform="translate(222.65625 0)"/>
     <use xlink:href="#DejaVuSans-20" transform="translate(317.675781 0)"/>
     <use xlink:href="#DejaVuSans-7c" transform="translate(349.462891 0)"/>
     <use xlink:href="#DejaVuSans-20" transform="translate(383.154297 0)"/>
     <use xlink:href="#DejaVuSans-31" transform="translate(414.941406 0)"/>
     <use xlink:href="#DejaVuSans-2e" transform="translate(478.564453 0)"/>
     <use xlink:href="#DejaVuSans-38" transform="translate(510.351562 0)"/>
     <use xlink:href="#DejaVuSans-20" transform="translate(573.974609 0)"/>
     <use xlink:href="#DejaVuSans-63" transform="translate(605.761719 0)"/>
     <use xlink:href="#DejaVuSans-6d" transform="translate(660.742188 0)"/>
    </g>
   </g>
   <g id="text_36">
    <!-- 97.8% | 1.9 cm -->
    <g style="fill: #1f1f1f" transform="translate(689.03196 156.086224) scale(0.095 -0.095)">
     <use xlink:href="#DejaVuSans-39"/>
     <use xlink:href="#DejaVuSans-37" transform="translate(63.623047 0)"/>
     <use xlink:href="#DejaVuSans-2e" transform="translate(127.246094 0)"/>
     <use xlink:href="#DejaVuSans-38" transform="translate(159.033203 0)"/>
     <use xlink:href="#DejaVuSans-25" transform="translate(222.65625 0)"/>
     <use xlink:href="#DejaVuSans-20" transform="translate(317.675781 0)"/>
     <use xlink:href="#DejaVuSans-7c" transform="translate(349.462891 0)"/>
     <use xlink:href="#DejaVuSans-20" transform="translate(383.154297 0)"/>
     <use xlink:href="#DejaVuSans-31" transform="translate(414.941406 0)"/>
     <use xlink:href="#DejaVuSans-2e" transform="translate(478.564453 0)"/>
     <use xlink:href="#DejaVuSans-39" transform="translate(510.351562 0)"/>
     <use xlink:href="#DejaVuSans-20" transform="translate(573.974609 0)"/>
     <use xlink:href="#DejaVuSans-63" transform="translate(605.761719 0)"/>
     <use xlink:href="#DejaVuSans-6d" transform="translate(660.742188 0)"/>
    </g>
   </g>
   <g id="text_37">
    <!-- 97.9% | 1.8 cm -->
    <g style="fill: #1f1f1f" transform="translate(689.205388 132.337087) scale(0.095 -0.095)">
     <use xlink:href="#DejaVuSans-39"/>
     <use xlink:href="#DejaVuSans-37" transform="translate(63.623047 0)"/>
     <use xlink:href="#DejaVuSans-2e" transform="translate(127.246094 0)"/>
     <use xlink:href="#DejaVuSans-39" transform="translate(159.033203 0)"/>
     <use xlink:href="#DejaVuSans-25" transform="translate(222.65625 0)"/>
     <use xlink:href="#DejaVuSans-20" transform="translate(317.675781 0)"/>
     <use xlink:href="#DejaVuSans-7c" transform="translate(349.462891 0)"/>
     <use xlink:href="#DejaVuSans-20" transform="translate(383.154297 0)"/>
     <use xlink:href="#DejaVuSans-31" transform="translate(414.941406 0)"/>
     <use xlink:href="#DejaVuSans-2e" transform="translate(478.564453 0)"/>
     <use xlink:href="#DejaVuSans-38" transform="translate(510.351562 0)"/>
     <use xlink:href="#DejaVuSans-20" transform="translate(573.974609 0)"/>
     <use xlink:href="#DejaVuSans-63" transform="translate(605.761719 0)"/>
     <use xlink:href="#DejaVuSans-6d" transform="translate(660.742188 0)"/>
    </g>
   </g>
   <g id="text_38">
    <!-- 98.0% | 1.7 cm -->
    <g style="fill: #1f1f1f" transform="translate(690.072524 108.58795) scale(0.095 -0.095)">
     <use xlink:href="#DejaVuSans-39"/>
     <use xlink:href="#DejaVuSans-38" transform="translate(63.623047 0)"/>
     <use xlink:href="#DejaVuSans-2e" transform="translate(127.246094 0)"/>
     <use xlink:href="#DejaVuSans-30" transform="translate(159.033203 0)"/>
     <use xlink:href="#DejaVuSans-25" transform="translate(222.65625 0)"/>
     <use xlink:href="#DejaVuSans-20" transform="translate(317.675781 0)"/>
     <use xlink:href="#DejaVuSans-7c" transform="translate(349.462891 0)"/>
     <use xlink:href="#DejaVuSans-20" transform="translate(383.154297 0)"/>
     <use xlink:href="#DejaVuSans-31" transform="translate(414.941406 0)"/>
     <use xlink:href="#DejaVuSans-2e" transform="translate(478.564453 0)"/>
     <use xlink:href="#DejaVuSans-37" transform="translate(510.351562 0)"/>
     <use xlink:href="#DejaVuSans-20" transform="translate(573.974609 0)"/>
     <use xlink:href="#DejaVuSans-63" transform="translate(605.761719 0)"/>
     <use xlink:href="#DejaVuSans-6d" transform="translate(660.742188 0)"/>
    </g>
   </g>
   <g id="text_39">
    <!-- 98.0% | 1.6 cm -->
    <g style="fill: #1f1f1f" transform="translate(690.072524 84.838813) scale(0.095 -0.095)">
     <use xlink:href="#DejaVuSans-39"/>
     <use xlink:href="#DejaVuSans-38" transform="translate(63.623047 0)"/>
     <use xlink:href="#DejaVuSans-2e" transform="translate(127.246094 0)"/>
     <use xlink:href="#DejaVuSans-30" transform="translate(159.033203 0)"/>
     <use xlink:href="#DejaVuSans-25" transform="translate(222.65625 0)"/>
     <use xlink:href="#DejaVuSans-20" transform="translate(317.675781 0)"/>
     <use xlink:href="#DejaVuSans-7c" transform="translate(349.462891 0)"/>
     <use xlink:href="#DejaVuSans-20" transform="translate(383.154297 0)"/>
     <use xlink:href="#DejaVuSans-31" transform="translate(414.941406 0)"/>
     <use xlink:href="#DejaVuSans-2e" transform="translate(478.564453 0)"/>
     <use xlink:href="#DejaVuSans-36" transform="translate(510.351562 0)"/>
     <use xlink:href="#DejaVuSans-20" transform="translate(573.974609 0)"/>
     <use xlink:href="#DejaVuSans-63" transform="translate(605.761719 0)"/>
     <use xlink:href="#DejaVuSans-6d" transform="translate(660.742188 0)"/>
    </g>
   </g>
   <g id="text_40">
    <!-- 98.1% | 1.4 cm -->
    <g style="fill: #1f1f1f" transform="translate(690.419379 61.089676) scale(0.095 -0.095)">
     <use xlink:href="#DejaVuSans-39"/>
     <use xlink:href="#DejaVuSans-38" transform="translate(63.623047 0)"/>
     <use xlink:href="#DejaVuSans-2e" transform="translate(127.246094 0)"/>
     <use xlink:href="#DejaVuSans-31" transform="translate(159.033203 0)"/>
     <use xlink:href="#DejaVuSans-25" transform="translate(222.65625 0)"/>
     <use xlink:href="#DejaVuSans-20" transform="translate(317.675781 0)"/>
     <use xlink:href="#DejaVuSans-7c" transform="translate(349.462891 0)"/>
     <use xlink:href="#DejaVuSans-20" transform="translate(383.154297 0)"/>
     <use xlink:href="#DejaVuSans-31" transform="translate(414.941406 0)"/>
     <use xlink:href="#DejaVuSans-2e" transform="translate(478.564453 0)"/>
     <use xlink:href="#DejaVuSans-34" transform="translate(510.351562 0)"/>
     <use xlink:href="#DejaVuSans-20" transform="translate(573.974609 0)"/>
     <use xlink:href="#DejaVuSans-63" transform="translate(605.761719 0)"/>
     <use xlink:href="#DejaVuSans-6d" transform="translate(660.742188 0)"/>
    </g>
   </g>
   <g id="text_41">
    <g id="patch_21">
     <path d="M 524.867592 421.312525
L 706.523842 421.312525
Q 709.523842 421.312525 709.523842 418.312525
L 709.523842 397.436587
Q 709.523842 394.436587 706.523842 394.436587
L 524.867592 394.436587
Q 521.867592 394.436587 521.867592 397.436587
L 521.867592 418.312525
Q 521.867592 421.312525 524.867592 421.312525
z
" style="fill: #ffffff; opacity: 0.9"/>
    </g>
    <!-- Top 3 autour de 98% -->
    <g style="fill: #1f1f1f" transform="translate(602.892592 405.035025) scale(0.1 -0.1)">
     <use xlink:href="#DejaVuSans-54"/>
     <use xlink:href="#DejaVuSans-6f" transform="translate(44.083984 0)"/>
     <use xlink:href="#DejaVuSans-70" transform="translate(105.265625 0)"/>
     <use xlink:href="#DejaVuSans-20" transform="translate(168.742188 0)"/>
     <use xlink:href="#DejaVuSans-33" transform="translate(200.529297 0)"/>
     <use xlink:href="#DejaVuSans-20" transform="translate(264.152344 0)"/>
     <use xlink:href="#DejaVuSans-61" transform="translate(295.939453 0)"/>
     <use xlink:href="#DejaVuSans-75" transform="translate(357.21875 0)"/>
     <use xlink:href="#DejaVuSans-74" transform="translate(420.597656 0)"/>
     <use xlink:href="#DejaVuSans-6f" transform="translate(459.806641 0)"/>
     <use xlink:href="#DejaVuSans-75" transform="translate(520.988281 0)"/>
     <use xlink:href="#DejaVuSans-72" transform="translate(584.367188 0)"/>
     <use xlink:href="#DejaVuSans-20" transform="translate(625.480469 0)"/>
     <use xlink:href="#DejaVuSans-64" transform="translate(657.267578 0)"/>
     <use xlink:href="#DejaVuSans-65" transform="translate(720.744141 0)"/>
     <use xlink:href="#DejaVuSans-20" transform="translate(782.267578 0)"/>
     <use xlink:href="#DejaVuSans-39" transform="translate(814.054688 0)"/>
     <use xlink:href="#DejaVuSans-38" transform="translate(877.677734 0)"/>
     <use xlink:href="#DejaVuSans-25" transform="translate(941.300781 0)"/>
    </g>
    <!-- avec erreur moyenne ~1.4 a 1.7 cm -->
    <g style="fill: #1f1f1f" transform="translate(524.867592 416.232837) scale(0.1 -0.1)">
     <defs>
      <path id="DejaVuSans-76" d="M 191 3500
L 800 3500
L 1894 563
L 2988 3500
L 3597 3500
L 2284 0
L 1503 0
L 191 3500
z
" transform="scale(0.015625)"/>
      <path id="DejaVuSans-7e" d="M 4684 2553
L 4684 1997
Q 4356 1750 4076 1644
Q 3797 1538 3494 1538
Q 3150 1538 2694 1722
Q 2659 1734 2644 1741
Q 2622 1750 2575 1766
Q 2091 1959 1797 1959
Q 1522 1959 1253 1839
Q 984 1719 678 1459
L 678 2016
Q 1006 2263 1286 2370
Q 1566 2478 1869 2478
Q 2213 2478 2672 2291
Q 2703 2278 2719 2272
Q 2744 2263 2788 2247
Q 3272 2053 3566 2053
Q 3834 2053 4098 2172
Q 4363 2291 4684 2553
z
" transform="scale(0.015625)"/>
     </defs>
     <use xlink:href="#DejaVuSans-61"/>
     <use xlink:href="#DejaVuSans-76" transform="translate(61.279297 0)"/>
     <use xlink:href="#DejaVuSans-65" transform="translate(120.458984 0)"/>
     <use xlink:href="#DejaVuSans-63" transform="translate(181.982422 0)"/>
     <use xlink:href="#DejaVuSans-20" transform="translate(236.962891 0)"/>
     <use xlink:href="#DejaVuSans-65" transform="translate(268.75 0)"/>
     <use xlink:href="#DejaVuSans-72" transform="translate(330.273438 0)"/>
     <use xlink:href="#DejaVuSans-72" transform="translate(369.636719 0)"/>
     <use xlink:href="#DejaVuSans-65" transform="translate(408.5 0)"/>
     <use xlink:href="#DejaVuSans-75" transform="translate(470.023438 0)"/>
     <use xlink:href="#DejaVuSans-72" transform="translate(533.402344 0)"/>
     <use xlink:href="#DejaVuSans-20" transform="translate(574.515625 0)"/>
     <use xlink:href="#DejaVuSans-6d" transform="translate(606.302734 0)"/>
     <use xlink:href="#DejaVuSans-6f" transform="translate(703.714844 0)"/>
     <use xlink:href="#DejaVuSans-79" transform="translate(764.896484 0)"/>
     <use xlink:href="#DejaVuSans-65" transform="translate(824.076172 0)"/>
     <use xlink:href="#DejaVuSans-6e" transform="translate(885.599609 0)"/>
     <use xlink:href="#DejaVuSans-6e" transform="translate(948.978516 0)"/>
     <use xlink:href="#DejaVuSans-65" transform="translate(1012.357422 0)"/>
     <use xlink:href="#DejaVuSans-20" transform="translate(1073.880859 0)"/>
     <use xlink:href="#DejaVuSans-7e" transform="translate(1105.667969 0)"/>
     <use xlink:href="#DejaVuSans-31" transform="translate(1189.457031 0)"/>
     <use xlink:href="#DejaVuSans-2e" transform="translate(1253.080078 0)"/>
     <use xlink:href="#DejaVuSans-34" transform="translate(1284.867188 0)"/>
     <use xlink:href="#DejaVuSans-20" transform="translate(1348.490234 0)"/>
     <use xlink:href="#DejaVuSans-61" transform="translate(1380.277344 0)"/>
     <use xlink:href="#DejaVuSans-20" transform="translate(1441.556641 0)"/>
     <use xlink:href="#DejaVuSans-31" transform="translate(1473.34375 0)"/>
     <use xlink:href="#DejaVuSans-2e" transform="translate(1536.966797 0)"/>
     <use xlink:href="#DejaVuSans-37" transform="translate(1568.753906 0)"/>
     <use xlink:href="#DejaVuSans-20" transform="translate(1632.376953 0)"/>
     <use xlink:href="#DejaVuSans-63" transform="translate(1664.164062 0)"/>
     <use xlink:href="#DejaVuSans-6d" transform="translate(1719.144531 0)"/>
    </g>
   </g>
   <g id="text_42">
    <!-- Room-aware : accuracy moyenne par modele -->
    <g style="fill: #1f1f1f" transform="translate(262.834722 16.318125) scale(0.12 -0.12)">
     <defs>
      <path id="DejaVuSans-Bold-52" d="M 2297 2597
Q 2675 2597 2839 2737
Q 3003 2878 3003 3200
Q 3003 3519 2839 3656
Q 2675 3794 2297 3794
L 1791 3794
L 1791 2597
L 2297 2597
z
M 1791 1766
L 1791 0
L 588 0
L 588 4666
L 2425 4666
Q 3347 4666 3776 4356
Q 4206 4047 4206 3378
Q 4206 2916 3982 2619
Q 3759 2322 3309 2181
Q 3556 2125 3751 1926
Q 3947 1728 4147 1325
L 4800 0
L 3519 0
L 2950 1159
Q 2778 1509 2601 1637
Q 2425 1766 2131 1766
L 1791 1766
z
" transform="scale(0.015625)"/>
      <path id="DejaVuSans-Bold-6f" d="M 2203 2784
Q 1831 2784 1636 2517
Q 1441 2250 1441 1747
Q 1441 1244 1636 976
Q 1831 709 2203 709
Q 2569 709 2762 976
Q 2956 1244 2956 1747
Q 2956 2250 2762 2517
Q 2569 2784 2203 2784
z
M 2203 3584
Q 3106 3584 3614 3096
Q 4122 2609 4122 1747
Q 4122 884 3614 396
Q 3106 -91 2203 -91
Q 1297 -91 786 396
Q 275 884 275 1747
Q 275 2609 786 3096
Q 1297 3584 2203 3584
z
" transform="scale(0.015625)"/>
      <path id="DejaVuSans-Bold-6d" d="M 3781 2919
Q 3994 3244 4286 3414
Q 4578 3584 4928 3584
Q 5531 3584 5847 3212
Q 6163 2841 6163 2131
L 6163 0
L 5038 0
L 5038 1825
Q 5041 1866 5042 1909
Q 5044 1953 5044 2034
Q 5044 2406 4934 2573
Q 4825 2741 4581 2741
Q 4263 2741 4089 2478
Q 3916 2216 3909 1719
L 3909 0
L 2784 0
L 2784 1825
Q 2784 2406 2684 2573
Q 2584 2741 2328 2741
Q 2006 2741 1831 2477
Q 1656 2213 1656 1722
L 1656 0
L 531 0
L 531 3500
L 1656 3500
L 1656 2988
Q 1863 3284 2130 3434
Q 2397 3584 2719 3584
Q 3081 3584 3359 3409
Q 3638 3234 3781 2919
z
" transform="scale(0.015625)"/>
      <path id="DejaVuSans-Bold-2d" d="M 347 2297
L 2309 2297
L 2309 1388
L 347 1388
L 347 2297
z
" transform="scale(0.015625)"/>
      <path id="DejaVuSans-Bold-61" d="M 2106 1575
Q 1756 1575 1579 1456
Q 1403 1338 1403 1106
Q 1403 894 1545 773
Q 1688 653 1941 653
Q 2256 653 2472 879
Q 2688 1106 2688 1447
L 2688 1575
L 2106 1575
z
M 3816 1997
L 3816 0
L 2688 0
L 2688 519
Q 2463 200 2181 54
Q 1900 -91 1497 -91
Q 953 -91 614 226
Q 275 544 275 1050
Q 275 1666 698 1953
Q 1122 2241 2028 2241
L 2688 2241
L 2688 2328
Q 2688 2594 2478 2717
Q 2269 2841 1825 2841
Q 1466 2841 1156 2769
Q 847 2697 581 2553
L 581 3406
Q 941 3494 1303 3539
Q 1666 3584 2028 3584
Q 2975 3584 3395 3211
Q 3816 2838 3816 1997
z
" transform="scale(0.015625)"/>
      <path id="DejaVuSans-Bold-77" d="M 225 3500
L 1313 3500
L 1900 1088
L 2491 3500
L 3425 3500
L 4013 1113
L 4603 3500
L 5691 3500
L 4769 0
L 3547 0
L 2956 2406
L 2369 0
L 1147 0
L 225 3500
z
" transform="scale(0.015625)"/>
      <path id="DejaVuSans-Bold-72" d="M 3138 2547
Q 2991 2616 2845 2648
Q 2700 2681 2553 2681
Q 2122 2681 1889 2404
Q 1656 2128 1656 1613
L 1656 0
L 538 0
L 538 3500
L 1656 3500
L 1656 2925
Q 1872 3269 2151 3426
Q 2431 3584 2822 3584
Q 2878 3584 2943 3579
Q 3009 3575 3134 3559
L 3138 2547
z
" transform="scale(0.015625)"/>
      <path id="DejaVuSans-Bold-65" d="M 4031 1759
L 4031 1441
L 1416 1441
Q 1456 1047 1700 850
Q 1944 653 2381 653
Q 2734 653 3104 758
Q 3475 863 3866 1075
L 3866 213
Q 3469 63 3072 -14
Q 2675 -91 2278 -91
Q 1328 -91 801 392
Q 275 875 275 1747
Q 275 2603 792 3093
Q 1309 3584 2216 3584
Q 3041 3584 3536 3087
Q 4031 2591 4031 1759
z
M 2881 2131
Q 2881 2450 2695 2645
Q 2509 2841 2209 2841
Q 1884 2841 1681 2658
Q 1478 2475 1428 2131
L 2881 2131
z
" transform="scale(0.015625)"/>
      <path id="DejaVuSans-Bold-20" transform="scale(0.015625)"/>
      <path id="DejaVuSans-Bold-3a" d="M 716 3500
L 1844 3500
L 1844 2291
L 716 2291
L 716 3500
z
M 716 1209
L 1844 1209
L 1844 0
L 716 0
L 716 1209
z
" transform="scale(0.015625)"/>
      <path id="DejaVuSans-Bold-63" d="M 3366 3391
L 3366 2478
Q 3138 2634 2908 2709
Q 2678 2784 2431 2784
Q 1963 2784 1702 2511
Q 1441 2238 1441 1747
Q 1441 1256 1702 982
Q 1963 709 2431 709
Q 2694 709 2930 787
Q 3166 866 3366 1019
L 3366 103
Q 3103 6 2833 -42
Q 2563 -91 2291 -91
Q 1344 -91 809 395
Q 275 881 275 1747
Q 275 2613 809 3098
Q 1344 3584 2291 3584
Q 2566 3584 2833 3536
Q 3100 3488 3366 3391
z
" transform="scale(0.015625)"/>
      <path id="DejaVuSans-Bold-75" d="M 500 1363
L 500 3500
L 1625 3500
L 1625 3150
Q 1625 2866 1622 2436
Q 1619 2006 1619 1863
Q 1619 1441 1641 1255
Q 1663 1069 1716 984
Q 1784 875 1895 815
Q 2006 756 2150 756
Q 2500 756 2700 1025
Q 2900 1294 2900 1772
L 2900 3500
L 4019 3500
L 4019 0
L 2900 0
L 2900 506
Q 2647 200 2364 54
Q 2081 -91 1741 -91
Q 1134 -91 817 281
Q 500 653 500 1363
z
" transform="scale(0.015625)"/>
      <path id="DejaVuSans-Bold-79" d="M 78 3500
L 1197 3500
L 2138 1125
L 2938 3500
L 4056 3500
L 2584 -331
Q 2363 -916 2067 -1148
Q 1772 -1381 1288 -1381
L 641 -1381
L 641 -647
L 991 -647
Q 1275 -647 1404 -556
Q 1534 -466 1606 -231
L 1638 -134
L 78 3500
z
" transform="scale(0.015625)"/>
      <path id="DejaVuSans-Bold-6e" d="M 4056 2131
L 4056 0
L 2931 0
L 2931 347
L 2931 1631
Q 2931 2084 2911 2256
Q 2891 2428 2841 2509
Q 2775 2619 2662 2680
Q 2550 2741 2406 2741
Q 2056 2741 1856 2470
Q 1656 2200 1656 1722
L 1656 0
L 538 0
L 538 3500
L 1656 3500
L 1656 2988
Q 1909 3294 2193 3439
Q 2478 3584 2822 3584
Q 3428 3584 3742 3212
Q 4056 2841 4056 2131
z
" transform="scale(0.015625)"/>
      <path id="DejaVuSans-Bold-70" d="M 1656 506
L 1656 -1331
L 538 -1331
L 538 3500
L 1656 3500
L 1656 2988
Q 1888 3294 2169 3439
Q 2450 3584 2816 3584
Q 3463 3584 3878 3070
Q 4294 2556 4294 1747
Q 4294 938 3878 423
Q 3463 -91 2816 -91
Q 2450 -91 2169 54
Q 1888 200 1656 506
z
M 2400 2772
Q 2041 2772 1848 2508
Q 1656 2244 1656 1747
Q 1656 1250 1848 986
Q 2041 722 2400 722
Q 2759 722 2948 984
Q 3138 1247 3138 1747
Q 3138 2247 2948 2509
Q 2759 2772 2400 2772
z
" transform="scale(0.015625)"/>
      <path id="DejaVuSans-Bold-64" d="M 2919 2988
L 2919 4863
L 4044 4863
L 4044 0
L 2919 0
L 2919 506
Q 2688 197 2409 53
Q 2131 -91 1766 -91
Q 1119 -91 703 423
Q 288 938 288 1747
Q 288 2556 703 3070
Q 1119 3584 1766 3584
Q 2128 3584 2408 3439
Q 2688 3294 2919 2988
z
M 2181 722
Q 2541 722 2730 984
Q 2919 1247 2919 1747
Q 2919 2247 2730 2509
Q 2541 2772 2181 2772
Q 1825 2772 1636 2509
Q 1447 2247 1447 1747
Q 1447 1247 1636 984
Q 1825 722 2181 722
z
" transform="scale(0.015625)"/>
      <path id="DejaVuSans-Bold-6c" d="M 538 4863
L 1656 4863
L 1656 0
L 538 0
L 538 4863
z
" transform="scale(0.015625)"/>
     </defs>
     <use xlink:href="#DejaVuSans-Bold-52"/>
     <use xlink:href="#DejaVuSans-Bold-6f" transform="translate(77.001953 0)"/>
     <use xlink:href="#DejaVuSans-Bold-6f" transform="translate(145.703125 0)"/>
     <use xlink:href="#DejaVuSans-Bold-6d" transform="translate(214.404297 0)"/>
     <use xlink:href="#DejaVuSans-Bold-2d" transform="translate(318.603516 0)"/>
     <use xlink:href="#DejaVuSans-Bold-61" transform="translate(360.107422 0)"/>
     <use xlink:href="#DejaVuSans-Bold-77" transform="translate(427.587891 0)"/>
     <use xlink:href="#DejaVuSans-Bold-61" transform="translate(519.970703 0)"/>
     <use xlink:href="#DejaVuSans-Bold-72" transform="translate(587.451172 0)"/>
     <use xlink:href="#DejaVuSans-Bold-65" transform="translate(636.767578 0)"/>
     <use xlink:href="#DejaVuSans-Bold-20" transform="translate(704.589844 0)"/>
     <use xlink:href="#DejaVuSans-Bold-3a" transform="translate(739.404297 0)"/>
     <use xlink:href="#DejaVuSans-Bold-20" transform="translate(779.394531 0)"/>
     <use xlink:href="#DejaVuSans-Bold-61" transform="translate(814.208984 0)"/>
     <use xlink:href="#DejaVuSans-Bold-63" transform="translate(881.689453 0)"/>
     <use xlink:href="#DejaVuSans-Bold-63" transform="translate(940.966797 0)"/>
     <use xlink:href="#DejaVuSans-Bold-75" transform="translate(1000.244141 0)"/>
     <use xlink:href="#DejaVuSans-Bold-72" transform="translate(1071.435547 0)"/>
     <use xlink:href="#DejaVuSans-Bold-61" transform="translate(1120.751953 0)"/>
     <use xlink:href="#DejaVuSans-Bold-63" transform="translate(1188.232422 0)"/>
     <use xlink:href="#DejaVuSans-Bold-79" transform="translate(1247.509766 0)"/>
     <use xlink:href="#DejaVuSans-Bold-20" transform="translate(1312.695312 0)"/>
     <use xlink:href="#DejaVuSans-Bold-6d" transform="translate(1347.509766 0)"/>
     <use xlink:href="#DejaVuSans-Bold-6f" transform="translate(1451.708984 0)"/>
     <use xlink:href="#DejaVuSans-Bold-79" transform="translate(1520.410156 0)"/>
     <use xlink:href="#DejaVuSans-Bold-65" transform="translate(1585.595703 0)"/>
     <use xlink:href="#DejaVuSans-Bold-6e" transform="translate(1653.417969 0)"/>
     <use xlink:href="#DejaVuSans-Bold-6e" transform="translate(1724.609375 0)"/>
     <use xlink:href="#DejaVuSans-Bold-65" transform="translate(1795.800781 0)"/>
     <use xlink:href="#DejaVuSans-Bold-20" transform="translate(1863.623047 0)"/>
     <use xlink:href="#DejaVuSans-Bold-70" transform="translate(1898.4375 0)"/>
     <use xlink:href="#DejaVuSans-Bold-61" transform="translate(1970.019531 0)"/>
     <use xlink:href="#DejaVuSans-Bold-72" transform="translate(2037.5 0)"/>
     <use xlink:href="#DejaVuSans-Bold-20" transform="translate(2086.816406 0)"/>
     <use xlink:href="#DejaVuSans-Bold-6d" transform="translate(2121.630859 0)"/>
     <use xlink:href="#DejaVuSans-Bold-6f" transform="translate(2225.830078 0)"/>
     <use xlink:href="#DejaVuSans-Bold-64" transform="translate(2294.53125 0)"/>
     <use xlink:href="#DejaVuSans-Bold-65" transform="translate(2366.113281 0)"/>
     <use xlink:href="#DejaVuSans-Bold-6c" transform="translate(2433.935547 0)"/>
     <use xlink:href="#DejaVuSans-Bold-65" transform="translate(2468.212891 0)"/>
    </g>
   </g>
  </g>
 </g>
 <defs>
  <clipPath id="p6a1f6710f4">
   <rect x="111.328125" y="30.318125" width="607.342569" height="412.76"/>
  </clipPath>
 </defs>
</svg>
